<?xml version="1.0" standalone="no"?>
<!DOCTYPE svg PUBLIC "-//W3C//DTD SVG 1.1//EN" "http://www.w3.org/Graphics/SVG/1.1/DTD/svg11.dtd" >
<svg xmlns="http://www.w3.org/2000/svg" xmlns:xlink="http://www.w3.org/1999/xlink" version="1.1">
<metadata></metadata>
<defs>
<font id="dojebiregular" horiz-adv-x="655" >
<font-face units-per-em="2048" ascent="1638" descent="-410" />
<missing-glyph horiz-adv-x="344" />
<glyph horiz-adv-x="0" />
<glyph unicode="&#xd;" horiz-adv-x="681" />
<glyph unicode=" "  horiz-adv-x="344" />
<glyph unicode="&#x09;" horiz-adv-x="344" />
<glyph unicode="&#xa0;" horiz-adv-x="344" />
<glyph unicode="A" d="M-248 221q50 50 84 109l139 243l19 31q11 19 33 19h288l17 28l41 72q25 41 63 68l31 22q-83 0 -127 -72l-39 -71q-13 -19 -35 -19h-260q15 10 25 25q12 13 20 29q33 58 92 98l13 10h-41q28 49 86 49h542q-52 -52 -84 -108l-59 -103l-16 -28l-29 -50l-123 -213 q-22 -40 -61 -67l-31 -23h41q-28 -49 -86 -49h-543zM-12 270q57 0 107 29q51 29 79 80l113 194q-44 0 -64 -36l-90 -156q-35 -62 -100 -90z" />
<glyph unicode="B" d="M-248 221q50 50 84 109l76 131l29 49l174 303l28 49l60 103q72 125 195 196q124 72 270 72q-70 -50 -113 -123l-143 -248h331q-52 -52 -84 -108l-139 -244l-28 -49l-39 -68q-43 -73 -113 -123h41q-28 -49 -86 -49h-543zM29 270q83 0 127 74l67 117l29 49l104 180 q40 72 111 123q-85 0 -125 -72l-133 -231l-29 -49l-39 -68q-44 -74 -112 -123z" />
<glyph unicode="C" d="M-254 221q50 50 84 109l76 131l28 49l103 180q43 73 113 123h-41q28 49 86 49h542q-52 -52 -84 -108l-59 -105q-37 -65 -101 -102t-141 -37h-127q50 52 86 117l39 63q40 72 111 123q-85 0 -125 -72l-133 -231l-29 -49l-39 -68q-44 -74 -112 -123q83 0 127 74l59 102 q7 15 24 15h273l-8 -8q-38 -43 -76 -95q-37 -51 -88 -88h41q-28 -49 -84 -49h-545z" />
<glyph unicode="D" d="M-248 221q50 50 84 109l207 362q44 73 111 119l2 2h-41q27 49 84 49h256l61 107q68 121 193 193q124 71 264 71h4h-2q-70 -51 -109 -121l-145 -250l-27 -49l-176 -303l-29 -49l-16 -29l-22 -39q-20 -35 -50 -67q-36 -38 -61 -56h41q-28 -49 -86 -49h-543zM29 270h4 q79 0 119 70l274 473h-6q-37 0 -58 -33l-223 -389q-45 -75 -108 -119z" />
<glyph unicode="E" d="M-248 221q50 50 84 109l60 102l16 29l29 49l122 213q23 41 62 68l31 22h-41q28 49 86 49h542q-52 -52 -84 -108l-139 -244l-18 -31q-10 -18 -33 -18h-276q-13 0 -19 -10l-10 -19l-41 -72q-23 -38 -64 -67l-30 -23q83 0 127 74l39 70q12 18 34 18h260q-16 -14 -24 -24 q-14 -14 -21 -29q-34 -59 -92 -100l-12 -9h41q-28 -49 -84 -49h-545zM209 510q42 0 63 37l90 155q35 63 101 91l45 20q-58 0 -108 -29t-78 -79z" />
<glyph unicode="F" d="M-481 -150q68 49 112 123l144 248l26 49l111 191l29 49l104 180q43 74 111 123h-41q28 49 86 49h542q-52 -52 -84 -108l-88 -154q-37 -65 -101 -102t-138 -37h-129q52 52 84 108l69 121q44 74 111 123q-85 0 -125 -72l-133 -231l-29 -49l-82 -142h92q-28 -49 -86 -49h-34 l-29 -49l-57 -102q-74 -125 -198 -197t-267 -72z" />
<glyph unicode="G" d="M-481 -150q68 49 112 123l56 97q28 48 73 74q48 28 103 28h170q-50 -48 -78 -102l-29 -47q-22 -40 -49 -68q-33 -34 -61 -55q85 0 125 71l116 201l27 49h-332q50 50 84 109l76 131l29 49l104 180q43 74 111 123h-41q28 49 86 49h542q-52 -52 -84 -108l-139 -244l-28 -49 l-111 -191l-55 -98q-85 -149 -236 -235q-153 -87 -321 -87h-250zM70 270q43 0 65 37l88 154l29 49l104 180q21 37 50 68q33 34 61 55q-85 0 -125 -72l-133 -231l-29 -49l-82 -142z" />
<glyph unicode="H" d="M-248 221q50 50 84 109l76 131l29 49l174 303l28 49l60 103q72 125 195 196q124 72 270 72q-70 -50 -113 -123l-143 -248h331q-52 -52 -84 -108l-139 -244l-28 -49l-39 -68q-43 -73 -113 -123h41q-28 -49 -86 -49h-211l29 49l110 191l29 49l145 254l29 49q-43 0 -64 -37 l-153 -266l-29 -49l-39 -68q-44 -74 -112 -123h41q-28 -49 -86 -49h-232z" />
<glyph unicode="I" horiz-adv-x="348" d="M-246 221q49 49 82 109l76 131l29 49l104 180q43 73 113 123h-41q27 49 84 49h233q-52 -52 -84 -108l-141 -244l-29 -49l-39 -68q-44 -75 -110 -123h41q-28 -49 -86 -49h-232zM172 911q29 50 86 50h211q-29 -50 -86 -50h-211z" />
<glyph unicode="J" horiz-adv-x="344" d="M-479 -150q68 49 112 123l115 199l27 49l28 49l111 191l29 49l104 180q40 73 113 123h-41q27 49 84 49h231q-50 -50 -82 -108l-141 -244l-29 -49l-110 -191l-27 -49l-29 -49l-32 -53q-73 -126 -196 -197q-124 -72 -267 -72zM174 911q29 50 86 50h211q-29 -50 -86 -50 h-211z" />
<glyph unicode="K" d="M-246 221q50 50 84 109l76 131l29 49l102 180q43 73 113 123h-41q28 49 86 49h231q-52 -52 -84 -108l-139 -244q42 0 63 37l101 174q39 66 104 103q67 38 142 38h124q-49 -49 -83 -108l-134 -234q-6 -10 -18 -12l-268 -39q-5 -2 -3 -5q1 -3 3 -3h235q6 0 8 -5t0 -10 l-30 -53q-43 -73 -113 -123h41q-28 -49 -86 -49h-231q50 50 84 109l59 102q-44 0 -66 -37v-2q-21 -34 -50 -67q-31 -34 -62 -56h41q-28 -49 -86 -49h-232z" />
<glyph unicode="L" d="M-246 221q50 50 84 109l76 131l29 49l174 303l28 49l60 103q72 125 195 196q124 72 268 72q-68 -49 -111 -123l-143 -248l-29 -49l-176 -303l-27 -49l-39 -68q-44 -74 -112 -123q84 0 125 74l59 102q7 15 27 15h272l-8 -8q-38 -43 -76 -95q-37 -51 -88 -88h41 q-28 -49 -86 -49h-543z" />
<glyph unicode="M" horiz-adv-x="923" d="M-248 221l10 8q40 42 68 90l66 113l16 29l29 49l104 180q40 72 111 123h-41q28 49 86 49h854l-8 -8q-43 -43 -70 -90l-146 -254l-28 -49l-17 -29l-22 -39q-43 -73 -113 -123h41q-28 -49 -86 -49h-231l10 8q40 42 68 90l65 113l17 29l28 49l105 180q40 73 110 123 q-84 0 -125 -72l-133 -231l-28 -49l-17 -29l-22 -39q-43 -73 -113 -123h41q-28 -49 -86 -49h-232l11 8q38 39 67 90l66 113l16 29l29 49l104 180q40 72 111 123q-85 0 -125 -72l-133 -231l-29 -49l-16 -29l-23 -39q-44 -74 -112 -123h41q-28 -49 -86 -49h-232z" />
<glyph unicode="N" d="M-246 221l8 8q43 43 70 90l66 113l16 29l29 49l102 180q43 73 113 123h-41q28 49 84 49h544l-8 -8q-41 -40 -69 -90l-148 -254l-26 -49l-19 -29l-20 -39q-43 -73 -113 -123h41q-28 -49 -86 -49h-231l8 8q40 41 69 90l66 113l16 29l29 49l102 180q43 73 113 123 q-83 0 -127 -72l-133 -231l-27 -49l-18 -29l-21 -39q-44 -74 -112 -123h41q-28 -49 -86 -49h-232z" />
<glyph unicode="O" d="M-248 221l10 8q40 42 68 90l66 113l16 29l29 49l104 180q22 40 49 68q30 32 62 55h-41q28 49 86 49h542l-8 -8q-41 -40 -69 -90l-146 -254l-28 -49l-17 -29l-22 -39q-43 -73 -113 -123h41q-28 -49 -86 -49h-543zM29 270q83 0 127 74l51 88l16 29l29 49l104 180 q21 37 50 68q33 34 61 55q-85 0 -125 -72l-133 -231l-29 -49l-16 -29l-23 -39q-44 -74 -112 -123z" />
<glyph unicode="P" d="M-481 -150q68 49 112 123l144 248l26 49l29 49l66 113l16 29l29 49l104 180q43 74 111 123h-41q28 49 86 49h542l-8 -10q-17 -14 -38 -41q-15 -18 -29 -47l-148 -254l-28 -49l-17 -29l-65 -113l-29 -49l-16 -30q-13 -19 -33 -19h-291l-57 -102q-72 -125 -197 -197 t-268 -72zM70 270q43 0 65 37l6 12l66 113l16 29l29 49l104 180q44 74 111 123q-85 0 -125 -72l-133 -231l-29 -49l-16 -29l-66 -113z" />
<glyph unicode="Q" d="M-246 221l8 8q43 43 70 90l66 113l16 29l29 49l102 180q43 73 113 123h-41q28 49 84 49h544l-8 -8q-41 -40 -69 -90l-148 -254l-26 -49l-19 -29l-63 -113l-29 -49l-29 -49l-28 -49h110q-28 -49 -84 -49h-55l-2 -4q-72 -125 -197 -197t-268 -72q70 50 113 123l86 150h-58 q28 49 86 49l29 49h-332zM72 270q42 0 63 37l8 12l66 113l16 29l29 49l102 180q43 73 113 123q-83 0 -127 -72l-133 -231l-27 -49l-18 -29l-64 -113z" />
<glyph unicode="R" d="M-246 221q50 50 84 109l60 102l16 29l29 49l104 182q39 70 109 121h2h-41q28 49 84 49h544q-49 -49 -83 -108l-89 -152q-46 -81 -123 -125q-80 -45 -169 -45h-86l16 14q14 15 22 31l21 33l86 152q60 103 168 149l2 2h-4q-54 0 -105 -28q-48 -26 -77 -76l-115 -199 l-27 -49l-18 -29l-23 -41q-40 -71 -108 -121h-2h41q-28 -49 -86 -49h-232z" />
<glyph unicode="S" d="M-248 221l10 8q40 42 68 90l41 70q7 14 23 14h253l-6 -10q-44 -74 -112 -123q83 0 127 74l34 59l17 29h-332q35 26 59 70l111 188q40 72 111 123h-41q28 49 86 49h542l-8 -8q-41 -40 -69 -90l-117 -205l-2 -4q-27 -45 -80 -45h-236q56 60 93 123l32 57q40 72 111 123 q-85 0 -125 -72l-133 -231l-16 -29h292q7 0 10 -5t-1 -11l-2 -4l-17 -29l-16 -29l-6 -10q-43 -73 -113 -123h41l-2 -4q-27 -45 -80 -45h-547z" />
<glyph unicode="T" horiz-adv-x="344" d="M-246 221l8 8q43 43 70 90l47 84l19 29l16 29l10 20l19 29l145 254l29 49l28 49l29 49h-57q29 50 84 50h2l2 4q72 125 195 196q124 72 268 72q-71 -51 -111 -123l-86 -149h111q-29 -50 -86 -50h-54l-28 -49l-29 -49l-29 -49l-147 -254l-16 -29l-11 -20l-18 -29l-17 -29 q-46 -84 -133 -131l-4 -2h62l-2 -4q-27 -45 -80 -45h-236z" />
<glyph unicode="U" d="M-248 221l10 8q40 42 68 90l49 84l17 29l16 29l12 20l17 29l104 180q40 72 111 123h-41q28 49 86 49h231l-8 -8q-43 -43 -70 -90l-145 -254l-16 -29l-13 -20l-16 -29l-17 -29l-6 -10q-44 -74 -112 -123q83 0 127 74l34 59l17 29l16 29l13 20l16 29l104 180q40 72 111 123 h-41q28 49 86 49h231l-8 -8q-41 -40 -69 -90l-146 -254l-16 -29l-12 -20l-17 -29l-16 -29l-6 -10q-43 -73 -113 -123h41q-28 -49 -86 -49h-543z" />
<glyph unicode="V" d="M-246 221l8 8q43 43 70 90l47 84l19 29l16 29l10 20l19 29l102 180q43 73 113 123h-41q28 49 84 49h233l-8 -8q-43 -43 -70 -90l-147 -254l-16 -29l-11 -20l-18 -29l-17 -29l-4 -10q-44 -74 -112 -123q84 0 125 74l34 59l19 29l16 29l11 20l18 29l102 180q43 73 113 123 h-41q28 49 84 49h233l-10 -8q-38 -39 -67 -90l-148 -254l-16 -29l-12 -20l-17 -29l-16 -29q-46 -83 -132 -133q-85 -49 -184 -49h-389z" />
<glyph unicode="W" horiz-adv-x="962" d="M-246 221l8 8q43 43 70 90l47 84l19 29l16 29l10 20l19 29l102 180q43 73 113 123h-41q28 49 84 49h233l-8 -8q-43 -43 -70 -90l-147 -254l-16 -29l-11 -20l-18 -29l-17 -29l-4 -10q-44 -74 -112 -123q84 0 125 74l34 59l19 29l16 29l11 20l18 29l102 180q43 73 113 123 h-41q28 49 84 49h233l-8 -8q-41 -40 -69 -90l-148 -254l-16 -29l-10 -20l-19 -29l-16 -29l-4 -10q-43 -73 -113 -123q84 0 125 74l35 59l18 29l17 29l10 20l18 29l103 180q44 74 112 123h-41q28 49 84 49h234l-10 -8q-40 -42 -68 -90l-148 -254l-16 -29l-12 -20l-17 -29 l-16 -29q-49 -84 -133 -133q-83 -49 -182 -49h-701z" />
<glyph unicode="X" horiz-adv-x="657" d="M-246 221l8 8q43 43 70 90l47 84l19 29l8 14q8 16 22 17l178 18q19 5 29 21h-180q-6 0 -9 5t1 9l12 23l86 151q44 75 113 121h-41q28 49 86 49h211l-29 -49l-29 -49l-147 -254q44 0 65 39l82 143q44 75 113 121h-41q28 49 84 51h233l-10 -10q-38 -38 -67 -88l-138 -238 q-11 -17 -28 -18l-172 -19q-18 -2 -29 -20h180q4 0 7 -5q3 -4 1 -9l-14 -23l-16 -29l-6 -10q-43 -73 -111 -123h41q-28 -49 -86 -49h-231l8 8q40 41 69 90l47 84l17 29l18 29h-10q-33 0 -51 -29l-17 -29l-4 -10q-44 -74 -112 -123h41q-28 -49 -86 -49h-232z" />
<glyph unicode="Y" d="M-481 -150q68 49 112 123l56 97q28 48 73 74q48 28 103 28h172q-48 -46 -80 -102l-29 -47q-24 -39 -49 -67q-31 -34 -61 -56q85 0 125 71l116 201l29 49h-332q50 53 82 109l76 131l29 49l104 180q43 74 111 123h-41q28 49 86 49h233q-52 -52 -84 -108l-252 -435l-28 -49 q43 0 65 37l88 154l29 49l108 186q20 33 46 62q33 34 61 55h-41q28 49 86 49h231q-49 -52 -84 -108l-139 -244l-28 -49l-111 -191l-29 -49l-26 -49q-85 -149 -236 -235q-153 -87 -321 -87h-250z" />
<glyph unicode="Z" d="M-248 221l10 8q40 42 68 90l49 84l17 29l16 29l6 10q4 10 16 10h267q34 0 51 29l104 180q40 72 111 123q-85 0 -125 -72l-127 -219q-6 -12 -20 -12h-275q48 47 76 98l49 82q40 72 111 123h-41q28 49 86 49h542l-8 -8q-41 -40 -69 -90l-146 -254l-16 -29l-12 -20l-9 -15 q-7 -14 -26 -14h-260q-33 0 -50 -29l-6 -10q-44 -74 -112 -123q83 0 127 74l26 47q7 12 21 12h276q-35 -28 -58 -60q-24 -32 -61 -58l-20 -15h41q-28 -49 -86 -49h-543z" />
<glyph unicode="[" horiz-adv-x="346" />
<glyph unicode="]" horiz-adv-x="346" />
<glyph unicode="a" d="M-248 221q50 50 84 109l139 243l19 31q11 19 33 19h288l17 28l41 72q25 41 63 68l31 22q-83 0 -127 -72l-39 -71q-13 -19 -35 -19h-260q15 10 25 25q12 13 20 29q33 58 92 98l13 10h-41q28 49 86 49h542q-52 -52 -84 -108l-59 -103l-16 -28l-29 -50l-123 -213 q-22 -40 -61 -67l-31 -23h41q-28 -49 -86 -49h-543zM-12 270q57 0 107 29q51 29 79 80l113 194q-44 0 -64 -36l-90 -156q-35 -62 -100 -90z" />
<glyph unicode="b" d="M-248 221q50 50 84 109l76 131l29 49l174 303l28 49l60 103q72 125 195 196q124 72 270 72q-70 -50 -113 -123l-143 -248h331q-52 -52 -84 -108l-139 -244l-28 -49l-39 -68q-43 -73 -113 -123h41q-28 -49 -86 -49h-543zM29 270q83 0 127 74l67 117l29 49l104 180 q40 72 111 123q-85 0 -125 -72l-133 -231l-29 -49l-39 -68q-44 -74 -112 -123z" />
<glyph unicode="c" d="M-254 221q50 50 84 109l76 131l28 49l103 180q43 73 113 123h-41q28 49 86 49h542q-52 -52 -84 -108l-59 -105q-37 -65 -101 -102t-141 -37h-127q50 52 86 117l39 63q40 72 111 123q-85 0 -125 -72l-133 -231l-29 -49l-39 -68q-44 -74 -112 -123q83 0 127 74l59 102 q7 15 24 15h273l-8 -8q-38 -43 -76 -95q-37 -51 -88 -88h41q-28 -49 -84 -49h-545z" />
<glyph unicode="d" d="M-248 221q50 50 84 109l207 362q44 73 111 119l2 2h-41q27 49 84 49h256l61 107q68 121 193 193q124 71 264 71h4h-2q-70 -51 -109 -121l-145 -250l-27 -49l-176 -303l-29 -49l-16 -29l-22 -39q-20 -35 -50 -67q-36 -38 -61 -56h41q-28 -49 -86 -49h-543zM29 270h4 q79 0 119 70l274 473h-6q-37 0 -58 -33l-223 -389q-45 -75 -108 -119z" />
<glyph unicode="e" d="M-248 221q50 50 84 109l60 102l16 29l29 49l122 213q23 41 62 68l31 22h-41q28 49 86 49h542q-52 -52 -84 -108l-139 -244l-18 -31q-10 -18 -33 -18h-276q-13 0 -19 -10l-10 -19l-41 -72q-23 -38 -64 -67l-30 -23q83 0 127 74l39 70q12 18 34 18h260q-16 -14 -24 -24 q-14 -14 -21 -29q-34 -59 -92 -100l-12 -9h41q-28 -49 -84 -49h-545zM209 510q42 0 63 37l90 155q35 63 101 91l45 20q-58 0 -108 -29t-78 -79z" />
<glyph unicode="f" d="M-481 -150q68 49 112 123l144 248l26 49l111 191l29 49l104 180q43 74 111 123h-41q28 49 86 49h542q-52 -52 -84 -108l-88 -154q-37 -65 -101 -102t-138 -37h-129q52 52 84 108l69 121q44 74 111 123q-85 0 -125 -72l-133 -231l-29 -49l-82 -142h92q-28 -49 -86 -49h-34 l-29 -49l-57 -102q-74 -125 -198 -197t-267 -72z" />
<glyph unicode="g" d="M-481 -150q68 49 112 123l56 97q28 48 73 74q48 28 103 28h170q-50 -48 -78 -102l-29 -47q-22 -40 -49 -68q-33 -34 -61 -55q85 0 125 71l116 201l27 49h-332q50 50 84 109l76 131l29 49l104 180q43 74 111 123h-41q28 49 86 49h542q-52 -52 -84 -108l-139 -244l-28 -49 l-111 -191l-55 -98q-85 -149 -236 -235q-153 -87 -321 -87h-250zM70 270q43 0 65 37l88 154l29 49l104 180q21 37 50 68q33 34 61 55q-85 0 -125 -72l-133 -231l-29 -49l-82 -142z" />
<glyph unicode="h" d="M-248 221q50 50 84 109l76 131l29 49l174 303l28 49l60 103q72 125 195 196q124 72 270 72q-70 -50 -113 -123l-143 -248h331q-52 -52 -84 -108l-139 -244l-28 -49l-39 -68q-43 -73 -113 -123h41q-28 -49 -86 -49h-211l29 49l110 191l29 49l145 254l29 49q-43 0 -64 -37 l-153 -266l-29 -49l-39 -68q-44 -74 -112 -123h41q-28 -49 -86 -49h-232z" />
<glyph unicode="i" horiz-adv-x="348" d="M-246 221q49 49 82 109l76 131l29 49l104 180q43 73 113 123h-41q27 49 84 49h233q-52 -52 -84 -108l-141 -244l-29 -49l-39 -68q-44 -75 -110 -123h41q-28 -49 -86 -49h-232zM172 911q29 50 86 50h211q-29 -50 -86 -50h-211z" />
<glyph unicode="j" horiz-adv-x="344" d="M-479 -150q68 49 112 123l115 199l27 49l28 49l111 191l29 49l104 180q40 73 113 123h-41q27 49 84 49h231q-50 -50 -82 -108l-141 -244l-29 -49l-110 -191l-27 -49l-29 -49l-32 -53q-73 -126 -196 -197q-124 -72 -267 -72zM174 911q29 50 86 50h211q-29 -50 -86 -50 h-211z" />
<glyph unicode="k" d="M-246 221q50 50 84 109l76 131l29 49l102 180q43 73 113 123h-41q28 49 86 49h231q-52 -52 -84 -108l-139 -244q42 0 63 37l101 174q39 66 104 103q67 38 142 38h124q-49 -49 -83 -108l-134 -234q-6 -10 -18 -12l-268 -39q-5 -2 -3 -5q1 -3 3 -3h235q6 0 8 -5t0 -10 l-30 -53q-43 -73 -113 -123h41q-28 -49 -86 -49h-231q50 50 84 109l59 102q-44 0 -66 -37v-2q-21 -34 -50 -67q-31 -34 -62 -56h41q-28 -49 -86 -49h-232z" />
<glyph unicode="l" d="M-246 221q50 50 84 109l76 131l29 49l174 303l28 49l60 103q72 125 195 196q124 72 268 72q-68 -49 -111 -123l-143 -248l-29 -49l-176 -303l-27 -49l-39 -68q-44 -74 -112 -123q84 0 125 74l59 102q7 15 27 15h272l-8 -8q-38 -43 -76 -95q-37 -51 -88 -88h41 q-28 -49 -86 -49h-543z" />
<glyph unicode="m" horiz-adv-x="923" d="M-248 221l10 8q40 42 68 90l66 113l16 29l29 49l104 180q40 72 111 123h-41q28 49 86 49h854l-8 -8q-43 -43 -70 -90l-146 -254l-28 -49l-17 -29l-22 -39q-43 -73 -113 -123h41q-28 -49 -86 -49h-231l10 8q40 42 68 90l65 113l17 29l28 49l105 180q40 73 110 123 q-84 0 -125 -72l-133 -231l-28 -49l-17 -29l-22 -39q-43 -73 -113 -123h41q-28 -49 -86 -49h-232l11 8q38 39 67 90l66 113l16 29l29 49l104 180q40 72 111 123q-85 0 -125 -72l-133 -231l-29 -49l-16 -29l-23 -39q-44 -74 -112 -123h41q-28 -49 -86 -49h-232z" />
<glyph unicode="n" d="M-246 221l8 8q43 43 70 90l66 113l16 29l29 49l102 180q43 73 113 123h-41q28 49 84 49h544l-8 -8q-41 -40 -69 -90l-148 -254l-26 -49l-19 -29l-20 -39q-43 -73 -113 -123h41q-28 -49 -86 -49h-231l8 8q40 41 69 90l66 113l16 29l29 49l102 180q43 73 113 123 q-83 0 -127 -72l-133 -231l-27 -49l-18 -29l-21 -39q-44 -74 -112 -123h41q-28 -49 -86 -49h-232z" />
<glyph unicode="o" d="M-248 221l10 8q40 42 68 90l66 113l16 29l29 49l104 180q22 40 49 68q30 32 62 55h-41q28 49 86 49h542l-8 -8q-41 -40 -69 -90l-146 -254l-28 -49l-17 -29l-22 -39q-43 -73 -113 -123h41q-28 -49 -86 -49h-543zM29 270q83 0 127 74l51 88l16 29l29 49l104 180 q21 37 50 68q33 34 61 55q-85 0 -125 -72l-133 -231l-29 -49l-16 -29l-23 -39q-44 -74 -112 -123z" />
<glyph unicode="p" d="M-481 -150q68 49 112 123l144 248l26 49l29 49l66 113l16 29l29 49l104 180q43 74 111 123h-41q28 49 86 49h542l-8 -10q-17 -14 -38 -41q-15 -18 -29 -47l-148 -254l-28 -49l-17 -29l-65 -113l-29 -49l-16 -30q-13 -19 -33 -19h-291l-57 -102q-72 -125 -197 -197 t-268 -72zM70 270q43 0 65 37l6 12l66 113l16 29l29 49l104 180q44 74 111 123q-85 0 -125 -72l-133 -231l-29 -49l-16 -29l-66 -113z" />
<glyph unicode="q" d="M-246 221l8 8q43 43 70 90l66 113l16 29l29 49l102 180q43 73 113 123h-41q28 49 84 49h544l-8 -8q-41 -40 -69 -90l-148 -254l-26 -49l-19 -29l-63 -113l-29 -49l-29 -49l-28 -49h110q-28 -49 -84 -49h-55l-2 -4q-72 -125 -197 -197t-268 -72q70 50 113 123l86 150h-58 q28 49 86 49l29 49h-332zM72 270q42 0 63 37l8 12l66 113l16 29l29 49l102 180q43 73 113 123q-83 0 -127 -72l-133 -231l-27 -49l-18 -29l-64 -113z" />
<glyph unicode="r" d="M-246 221q50 50 84 109l60 102l16 29l29 49l104 182q39 70 109 121h2h-41q28 49 84 49h544q-49 -49 -83 -108l-89 -152q-46 -81 -123 -125q-80 -45 -169 -45h-86l16 14q14 15 22 31l21 33l86 152q60 103 168 149l2 2h-4q-54 0 -105 -28q-48 -26 -77 -76l-115 -199 l-27 -49l-18 -29l-23 -41q-40 -71 -108 -121h-2h41q-28 -49 -86 -49h-232z" />
<glyph unicode="s" d="M-248 221l10 8q40 42 68 90l41 70q7 14 23 14h253l-6 -10q-44 -74 -112 -123q83 0 127 74l34 59l17 29h-332q35 26 59 70l111 188q40 72 111 123h-41q28 49 86 49h542l-8 -8q-41 -40 -69 -90l-117 -205l-2 -4q-27 -45 -80 -45h-236q56 60 93 123l32 57q40 72 111 123 q-85 0 -125 -72l-133 -231l-16 -29h292q7 0 10 -5t-1 -11l-2 -4l-17 -29l-16 -29l-6 -10q-43 -73 -113 -123h41l-2 -4q-27 -45 -80 -45h-547z" />
<glyph unicode="t" horiz-adv-x="344" d="M-246 221l8 8q43 43 70 90l47 84l19 29l16 29l10 20l19 29l145 254l29 49l28 49l29 49h-57q29 50 84 50h2l2 4q72 125 195 196q124 72 268 72q-71 -51 -111 -123l-86 -149h111q-29 -50 -86 -50h-54l-28 -49l-29 -49l-29 -49l-147 -254l-16 -29l-11 -20l-18 -29l-17 -29 q-46 -84 -133 -131l-4 -2h62l-2 -4q-27 -45 -80 -45h-236z" />
<glyph unicode="u" d="M-248 221l10 8q40 42 68 90l49 84l17 29l16 29l12 20l17 29l104 180q40 72 111 123h-41q28 49 86 49h231l-8 -8q-43 -43 -70 -90l-145 -254l-16 -29l-13 -20l-16 -29l-17 -29l-6 -10q-44 -74 -112 -123q83 0 127 74l34 59l17 29l16 29l13 20l16 29l104 180q40 72 111 123 h-41q28 49 86 49h231l-8 -8q-41 -40 -69 -90l-146 -254l-16 -29l-12 -20l-17 -29l-16 -29l-6 -10q-43 -73 -113 -123h41q-28 -49 -86 -49h-543z" />
<glyph unicode="v" d="M-246 221l8 8q43 43 70 90l47 84l19 29l16 29l10 20l19 29l102 180q43 73 113 123h-41q28 49 84 49h233l-8 -8q-43 -43 -70 -90l-147 -254l-16 -29l-11 -20l-18 -29l-17 -29l-4 -10q-44 -74 -112 -123q84 0 125 74l34 59l19 29l16 29l11 20l18 29l102 180q43 73 113 123 h-41q28 49 84 49h233l-10 -8q-38 -39 -67 -90l-148 -254l-16 -29l-12 -20l-17 -29l-16 -29q-46 -83 -132 -133q-85 -49 -184 -49h-389z" />
<glyph unicode="w" horiz-adv-x="962" d="M-246 221l8 8q43 43 70 90l47 84l19 29l16 29l10 20l19 29l102 180q43 73 113 123h-41q28 49 84 49h233l-8 -8q-43 -43 -70 -90l-147 -254l-16 -29l-11 -20l-18 -29l-17 -29l-4 -10q-44 -74 -112 -123q84 0 125 74l34 59l19 29l16 29l11 20l18 29l102 180q43 73 113 123 h-41q28 49 84 49h233l-8 -8q-41 -40 -69 -90l-148 -254l-16 -29l-10 -20l-19 -29l-16 -29l-4 -10q-43 -73 -113 -123q84 0 125 74l35 59l18 29l17 29l10 20l18 29l103 180q44 74 112 123h-41q28 49 84 49h234l-10 -8q-40 -42 -68 -90l-148 -254l-16 -29l-12 -20l-17 -29 l-16 -29q-49 -84 -133 -133q-83 -49 -182 -49h-701z" />
<glyph unicode="x" horiz-adv-x="657" d="M-246 221l8 8q43 43 70 90l47 84l19 29l8 14q8 16 22 17l178 18q19 5 29 21h-180q-6 0 -9 5t1 9l12 23l86 151q44 75 113 121h-41q28 49 86 49h211l-29 -49l-29 -49l-147 -254q44 0 65 39l82 143q44 75 113 121h-41q28 49 84 51h233l-10 -10q-38 -38 -67 -88l-138 -238 q-11 -17 -28 -18l-172 -19q-18 -2 -29 -20h180q4 0 7 -5q3 -4 1 -9l-14 -23l-16 -29l-6 -10q-43 -73 -111 -123h41q-28 -49 -86 -49h-231l8 8q40 41 69 90l47 84l17 29l18 29h-10q-33 0 -51 -29l-17 -29l-4 -10q-44 -74 -112 -123h41q-28 -49 -86 -49h-232z" />
<glyph unicode="y" d="M-481 -150q68 49 112 123l56 97q28 48 73 74q48 28 103 28h172q-48 -46 -80 -102l-29 -47q-24 -39 -49 -67q-31 -34 -61 -56q85 0 125 71l116 201l29 49h-332q50 53 82 109l76 131l29 49l104 180q43 74 111 123h-41q28 49 86 49h233q-52 -52 -84 -108l-252 -435l-28 -49 q43 0 65 37l88 154l29 49l108 186q20 33 46 62q33 34 61 55h-41q28 49 86 49h231q-49 -52 -84 -108l-139 -244l-28 -49l-111 -191l-29 -49l-26 -49q-85 -149 -236 -235q-153 -87 -321 -87h-250z" />
<glyph unicode="z" d="M-248 221l10 8q40 42 68 90l49 84l17 29l16 29l6 10q4 10 16 10h267q34 0 51 29l104 180q40 72 111 123q-85 0 -125 -72l-127 -219q-6 -12 -20 -12h-275q48 47 76 98l49 82q40 72 111 123h-41q28 49 86 49h542l-8 -8q-41 -40 -69 -90l-146 -254l-16 -29l-12 -20l-9 -15 q-7 -14 -26 -14h-260q-33 0 -50 -29l-6 -10q-44 -74 -112 -123q83 0 127 74l26 47q7 12 21 12h276q-35 -28 -58 -60q-24 -32 -61 -58l-20 -15h41q-28 -49 -86 -49h-543z" />
<glyph unicode="&#xd1;" d="M-246 221l8 8q40 42 68 90l66 113l16 29l29 49l104 180q43 74 111 123h-41q28 49 86 49h542l-8 -8q-38 -39 -67 -90l-148 -254l-28 -49l-17 -29l-22 -39q-43 -73 -113 -123h41q-27 -49 -84 -49h-231l8 8q38 39 67 90l66 113l16 29l29 49l104 180q44 74 111 123 q-85 0 -125 -72l-133 -231l-29 -49l-16 -29l-23 -39q-44 -74 -112 -123h41q-27 -49 -84 -49h-232zM233 911q29 50 86 50h400q-29 -50 -86 -50h-400z" />
<glyph unicode="&#xf1;" d="M-246 221l8 8q40 42 68 90l66 113l16 29l29 49l104 180q43 74 111 123h-41q28 49 86 49h542l-8 -8q-38 -39 -67 -90l-148 -254l-28 -49l-17 -29l-22 -39q-43 -73 -113 -123h41q-27 -49 -84 -49h-231l8 8q38 39 67 90l66 113l16 29l29 49l104 180q44 74 111 123 q-85 0 -125 -72l-133 -231l-29 -49l-16 -29l-23 -39q-44 -74 -112 -123h41q-27 -49 -84 -49h-232zM233 911q29 50 86 50h400q-29 -50 -86 -50h-400z" />
<glyph unicode="&#x2000;" horiz-adv-x="682" />
<glyph unicode="&#x2001;" horiz-adv-x="1365" />
<glyph unicode="&#x2002;" horiz-adv-x="682" />
<glyph unicode="&#x2003;" horiz-adv-x="1365" />
<glyph unicode="&#x2004;" horiz-adv-x="455" />
<glyph unicode="&#x2005;" horiz-adv-x="341" />
<glyph unicode="&#x2006;" horiz-adv-x="227" />
<glyph unicode="&#x2007;" horiz-adv-x="227" />
<glyph unicode="&#x2008;" horiz-adv-x="170" />
<glyph unicode="&#x2009;" horiz-adv-x="273" />
<glyph unicode="&#x200a;" horiz-adv-x="75" />
<glyph unicode="&#x202f;" horiz-adv-x="273" />
<glyph unicode="&#x205f;" horiz-adv-x="341" />
<glyph unicode="&#x25fc;" horiz-adv-x="860" d="M0 0v860h860v-860h-860z" />
</font>
</defs>
</svg>
