<?xml version="1.0" standalone="no"?>
<!DOCTYPE svg PUBLIC "-//W3C//DTD SVG 1.1//EN" "http://www.w3.org/Graphics/SVG/1.1/DTD/svg11.dtd" >
<svg xmlns="http://www.w3.org/2000/svg" xmlns:xlink="http://www.w3.org/1999/xlink" version="1.1">
<metadata></metadata>
<defs>
<font id="cagerollstandard" horiz-adv-x="0" >
<font-face units-per-em="2048" ascent="1638" descent="-410" />
<missing-glyph horiz-adv-x="759" />
<glyph unicode="&#xfb01;" horiz-adv-x="1562" d="M48 180l58 401l16 116q28 196 179 327t350 131h527q132 0 231 -78t129 -199q10 -40 -15 -72t-66 -32h-380q-15 0 -24.5 11t-7.5 26q9 63 -18 119q-25 50 -71.5 79t-100.5 30q-74 1 -130.5 -49t-67.5 -125q-11 -78 -28.5 -198.5t-23.5 -163.5h276q32 0 52.5 -24.5 t15.5 -55.5q-4 -25 -24 -41.5t-47 -16.5h-293l-33 -233q-8 -57 -51.5 -94.5t-101.5 -37.5h-199q-67 0 -114 50q-49 54 -38 130zM959 198l46 318q8 56 51.5 94t100.5 38h199q70 0 117 -53q46 -52 36 -123l-46 -318q-8 -56 -52 -94t-101 -38h-198q-70 0 -117 53 q-46 52 -36 123z" />
<glyph />
<glyph />
<glyph horiz-adv-x="682" />
<glyph unicode="&#xa;" />
<glyph unicode="&#xd;" />
<glyph unicode=" "  horiz-adv-x="759" />
<glyph unicode="&#x09;" horiz-adv-x="759" />
<glyph unicode="&#xa0;" horiz-adv-x="759" />
<glyph unicode="!" horiz-adv-x="704" d="M38 170q9 60 54.5 100t106.5 40h197q68 0 113 -51.5t35 -118.5q-9 -60 -55 -100t-107 -40h-197q-68 0 -112.5 51t-34.5 119zM103 627l57 396q8 57 51.5 94.5t101.5 37.5h188q75 0 124 -56.5t38 -130.5l-57 -395q-8 -57 -51.5 -95t-101.5 -38h-188q-75 0 -124 56.5 t-38 130.5z" />
<glyph unicode="&#x22;" horiz-adv-x="843" d="M101 1017q9 60 55 100t107 40h197q12 0 18 -1q6 1 18 1h197q68 0 112.5 -51t34.5 -119q-7 -45 -34.5 -79t-68.5 -50q-102 -55 -189 -141l18 130h-81q-92 -53 -170 -130l18 130h-85q-68 0 -112.5 51t-34.5 119z" />
<glyph unicode="#" horiz-adv-x="1263" d="M55 390q9 60 55 100t107 40h23l18 131q-65 4 -106 54.5t-32 115.5q9 60 54.5 100t106.5 40h21l12 88q8 57 51 94.5t101 37.5q70 0 116 -53t36 -122l-6 -45h148l13 88q8 57 51 94.5t101 37.5q70 0 116 -53t36 -122l-6 -46q66 -3 108.5 -53t32.5 -116q-9 -60 -55 -100 t-107 -40h-23l-18 -131q65 -4 106 -54.5t32 -115.5q-9 -60 -55 -100t-107 -40h-20l-12 -88q-8 -57 -51 -94.5t-101 -37.5q-70 0 -116 53t-36 122l6 45h-149l-12 -88q-8 -57 -51 -94.5t-101 -37.5q-70 0 -116 53t-36 122l6 46q-66 3 -108.5 53t-32.5 116zM550 530h149l18 131 h-149z" />
<glyph unicode="$" horiz-adv-x="1515" d="M52 396q27 62 90 62h334q13 -42 38 -69q59 -67 146 -67h38q71 0 125 47t65 118l13 90h-131l-10 -73q-4 -27 -25 -44.5t-48 -17.5h-27q-34 0 -56 25t-17 58l10 70h-491v3q25 169 152 279q128 111 298 111h-5l10 67q8 58 53 97t104 39h387l-29 -203h134q135 0 234 -91 q46 -43 23 -102q-27 -62 -90 -62h-333q-13 40 -39 69q-59 67 -145 67h-38q-71 0 -125.5 -47t-65.5 -118l-13 -91h121l11 74q4 27 24.5 44.5t47.5 17.5h38q33 0 55 -25t17 -58l-10 -71h492q0 -1 -0.5 -1t-0.5 -1q-25 -169 -152 -279q-128 -111 -298 -111h1l-9 -67 q-8 -58 -53 -97t-104 -39h-387l29 203h-130q-135 0 -234 91q-47 43 -24 102z" />
<glyph unicode="&#x26;" horiz-adv-x="1773" d="M65 423l5 38q8 54 55 79q37 21 82 21h-1q-48 1 -79.5 38t-24.5 85l13 91q23 161 149 271q123 108 290 108h249l47 326q4 26 24.5 41.5t46.5 11.5q25 -4 40.5 -25.5t11.5 -47.5l-68 -472q-43 20 -85 20q-73 0 -128 -48.5t-66 -120.5l-30 -211h396l21 144h663q28 0 48 -20 t19 -49q-1 -27 -21.5 -46t-48.5 -19h-169l-37 -259q-23 -162 -148 -271q-123 -108 -290 -108h-258l-27 -190q-3 -23 -21 -39.5t-41 -16.5q-29 0 -47.5 21.5t-14.5 49.5l25 175h-220q-98 0 -183.5 49.5t-134.5 136.5q-61 107 -42 237zM555 344q-10 -68 20 -123q26 -49 73 -77 t101 -28q73 0 128 48t66 120l30 211h-396z" />
<glyph unicode="'" horiz-adv-x="610" d="M101 1017q9 60 55 100t107 40h197q68 0 112.5 -51t34.5 -119q-7 -45 -34.5 -79t-68.5 -50q-102 -55 -189 -141l18 130h-85q-68 0 -112.5 51t-34.5 119z" />
<glyph unicode="(" horiz-adv-x="819" d="M65 417l51 358q23 163 148 272q123 108 290 108h271l-19 -131h-57q-73 0 -128 -48.5t-66 -120.5l-72 -500q-13 -88 46 -156t149 -68l-19 -131h-233q-80 0 -152 33t-124 93t-74 136t-11 155z" />
<glyph unicode=")" horiz-adv-x="821" d="M-6 0l19 131h57q73 0 128 48.5t66 120.5l72 499q13 89 -46 157t-149 68l19 131h233q80 0 152 -33t124 -93t74 -136t11 -155l-51 -358q-23 -162 -149 -272q-123 -108 -289 -108h-271z" />
<glyph unicode="+" horiz-adv-x="1212" d="M57 562q9 60 55 100.5t107 40.5h251l34 243q10 68 67 113t123 35q59 -9 92.5 -55t25.5 -107l-32 -229h222q68 0 112.5 -51t34.5 -119q-9 -60 -55 -100.5t-107 -40.5h-251l-34 -243q-10 -68 -67.5 -112.5t-123.5 -34.5q-59 9 -92 54.5t-25 106.5l32 229h-222 q-68 0 -112.5 51t-34.5 119z" />
<glyph unicode="," horiz-adv-x="636" d="M16 167q9 60 55 100t107 40h197q68 0 112.5 -51t34.5 -119q-7 -45 -34.5 -79t-68.5 -50q-102 -55 -189 -141l18 130h-85q-68 0 -112.5 51t-34.5 119z" />
<glyph unicode="-" horiz-adv-x="1216" d="M58 559q9 60 55 100t107 40h783q68 0 112.5 -51t34.5 -119q-9 -60 -55 -100t-107 -40h-783q-68 0 -112.5 51t-34.5 119z" />
<glyph unicode="." horiz-adv-x="636" d="M17 170q9 60 55 100t107 40h197q68 0 112.5 -51t34.5 -119q-9 -60 -55 -100t-107 -40h-197q-68 0 -112.5 51t-34.5 119z" />
<glyph unicode="/" horiz-adv-x="864" d="M33 215l364 847q18 43 56.5 68t85.5 25h153q83 0 129 -70q46 -69 13 -145l-365 -847q-18 -43 -56 -68t-85 -25h-154q-84 0 -129 69t-12 146z" />
<glyph unicode="0" horiz-adv-x="1585" d="M65 417l51 358q23 163 148 272q123 108 290 108h604q80 0 152 -33t124 -93t74 -136t11 -155l-51 -358q-23 -162 -149 -272q-123 -108 -289 -108h-604q-80 0 -152 33t-124 93t-74 136t-11 155zM555 340q-13 -88 46 -156t148 -68q73 0 128 48t66 120l72 500q13 88 -46 156 t-148 68q-73 0 -128 -48t-66 -120z" />
<glyph unicode="1" horiz-adv-x="1329" d="M19 0l51 359h329l56 392q-157 -49 -340 -63l48 335q8 57 51.5 94.5t100.5 37.5h535q71 0 116.5 -53t35.5 -123l-92 -620h185h143l-52 -359h-1167z" />
<glyph unicode="2" horiz-adv-x="1599" d="M15 0l40 281q25 170 156 278q123 103 286 103h391q52 0 90.5 33.5t46.5 84.5q9 63 -18 119q-25 50 -72 79t-101 30q-74 1 -130.5 -48.5t-67.5 -124.5l-6 -39h-501q30 151 145 251q123 108 290 108h737q83 0 146 -45q57 -41 84 -104.5t17 -131.5q-25 -171 -155 -278 q-123 -103 -287 -103h-368q-65 0 -114.5 -42.5t-58.5 -106.5q-9 -63 18 -119q30 -60 90.5 -89.5t125.5 -15.5q61 13 103.5 59.5t51.5 109.5l10 70h511l-52 -359h-1408z" />
<glyph unicode="3" horiz-adv-x="1574" d="M54 390h509l-2 -16q-9 -62 18 -118q25 -50 72 -79t101 -30q75 -1 130.5 48.5t66.5 124.5l30 204h-317q-32 0 -52 24t-16 55q4 25 23 42t45 17h336l22 149q9 63 -18 119q-25 50 -72 79t-101 30q-74 1 -130.5 -48.5t-67.5 -124.5l-10 -70h-510q30 151 145 251 q123 108 290 108h597q130 0 229 -76q79 -61 116 -152.5t23 -188.5l-3 -22q-11 -64 -63.5 -109t-117.5 -45q61 0 100.5 -40.5t37.5 -100.5l-6 -41q-23 -163 -148 -272q-123 -108 -290 -108h-597q-134 0 -234 80q-71 57 -106.5 139t-29.5 171z" />
<glyph unicode="4" horiz-adv-x="1759" d="M98 773l38 278l-2 -1q16 47 56 76t90 29h256q41 0 68 -30q27 -29 22 -71l-31 -253q-14 -118 64 -206q79 -89 196 -89h116l74 517q8 56 51.5 94t100.5 38h199q69 0 116 -53q46 -52 36 -123l-67 -468h155q28 0 46 -21q18 -20 14 -48q-3 -22 -20.5 -37t-39.5 -15h-172 l-37 -258q-8 -56 -52 -94t-101 -38h-198q-70 0 -117 53q-46 52 -36 123l31 214h-522q-73 0 -139.5 30.5t-114.5 85.5t-69 125t-11 142z" />
<glyph unicode="5" horiz-adv-x="1593" d="M73 359h480l-3 -15q-10 -67 20 -122q26 -49 73 -77.5t101 -28.5q73 0 128 48t66 120l30 209h-891l90 662h1409l-52 -359h-515l2 15q10 69 -19 122q-26 49 -73 77.5t-101 28.5q-73 0 -128 -48t-66 -120l-30 -209h758q59 0 99 -44t35 -103q-5 -50 -18 -137 q-23 -162 -148 -270q-123 -108 -289 -108h-598q-73 0 -135.5 22t-104.5 59t-71 84t-41 96.5t-8 97.5z" />
<glyph unicode="6" horiz-adv-x="1581" d="M65 417l51 358q23 163 148 272q123 108 290 108h598q123 0 220 -70q77 -56 116 -140t34 -176h-509l2 11q10 68 -20 123q-26 49 -73 77t-101 28q-73 0 -128 -48t-66 -120l-30 -209h751q62 0 102.5 -46.5t31.5 -107.5l-14 -97q-23 -162 -149 -272q-123 -108 -289 -108h-598 q-129 0 -228 76q-79 61 -116 152.5t-23 188.5zM555 340q-13 -88 46 -156t148 -68q73 0 128 48t66 120q12 83 -42.5 146t-137.5 63h-186z" />
<glyph unicode="7" horiz-adv-x="1560" d="M104 972l26 183h1408l-147 -1023q-8 -57 -51 -94.5t-101 -37.5h-190q-70 0 -116.5 53t-36.5 123l91 635q10 64 -17 119q-25 50 -72 79t-101 30q-74 1 -130.5 -48.5t-67.5 -124.5l-10 -70h-333q-70 0 -116 53t-36 123z" />
<glyph unicode="8" horiz-adv-x="1583" d="M64 408q11 64 63.5 109t116.5 45q-61 0 -100.5 41t-37.5 101l10 71q23 163 148 272q123 108 290 108h597q130 0 229 -76q79 -61 116 -152.5t23 -188.5l-3 -22q-11 -64 -63.5 -109t-117.5 -45q61 0 101 -40.5t38 -100.5l-6 -41q-23 -162 -149 -272q-123 -108 -290 -108 h-597q-128 0 -226 74q-78 60 -115.5 149t-26.5 185zM555 342q-12 -81 36.5 -146.5t128.5 -77.5q18 -2 29 -2q73 0 128 48t66 120l7 44q9 65 -34 115t-109 50h-230zM620 796q-9 -65 34 -115t109 -50h230l22 151q12 81 -36.5 146.5t-128.5 77.5q-18 2 -29 2q-73 0 -128 -48 t-66 -120z" />
<glyph unicode="9" horiz-adv-x="1581" d="M57 355h496l-2 -11q-10 -67 20 -122q26 -49 73 -77.5t101 -28.5q73 0 128 48t66 120l30 209h-742q-62 0 -102 47t-31 108l18 127q23 163 148 272q123 108 290 108h597q130 0 229 -76q79 -61 116 -152.5t23 -188.5l-52 -358q-23 -163 -148 -272q-123 -108 -290 -108h-597 q-132 0 -229 75q-66 51 -103 124.5t-39 155.5zM623 840q-12 -82 43 -145.5t138 -63.5h185l22 153q13 88 -46 156t-148 68q-73 0 -128 -48t-66 -120z" />
<glyph unicode=":" horiz-adv-x="675" d="M29 170q9 60 55 100t107 40h197q68 0 112.5 -51t34.5 -119q-9 -60 -54.5 -100t-106.5 -40h-197q-68 0 -113 51.5t-35 118.5zM94 610q9 60 55 100.5t107 40.5h197q68 0 112.5 -51t34.5 -119q-9 -60 -55 -100.5t-107 -40.5h-197q-68 0 -112.5 51t-34.5 119z" />
<glyph unicode=";" horiz-adv-x="675" d="M28 167q9 60 55 100t107 40h197q68 0 113 -51.5t35 -118.5q-7 -45 -34.5 -79t-68.5 -50q-104 -56 -190 -141l19 130h-85q-68 0 -113 51.5t-35 118.5zM93 608q9 60 55 100t107 40h197q68 0 112.5 -51t34.5 -119q-9 -60 -55 -100t-107 -40h-197q-68 0 -112.5 51t-34.5 119z " />
<glyph unicode="=" horiz-adv-x="1261" d="M29 170q9 60 55 100t107 40h783q68 0 112.5 -51t34.5 -119q-9 -60 -54.5 -100t-106.5 -40h-783q-68 0 -113 51.5t-35 118.5zM94 610q9 60 55 100.5t107 40.5h783q68 0 112.5 -51t34.5 -119q-9 -60 -55 -100.5t-107 -40.5h-783q-68 0 -112.5 51t-34.5 119z" />
<glyph unicode="?" horiz-adv-x="1527" d="M77 796q22 154 140.5 256.5t274.5 102.5h759q114 0 188 -86t57 -199q-25 -167 -155 -274q-123 -103 -286 -103h-72l-8 -53h-321q-75 0 -124 56.5t-38 130.5l5 35h337q51 0 92 35.5t48 85.5q8 62 -19 116q-31 62 -92.5 91t-128.5 13q-59 -14 -99.5 -60t-49.5 -108l-6 -39 h-502zM426 170q9 60 55 100t107 40h197q68 0 112.5 -51t34.5 -119q-9 -60 -54.5 -100t-106.5 -40h-198q-68 0 -112.5 51t-34.5 119z" />
<glyph unicode="@" horiz-adv-x="1585" d="M65 417l51 358q23 163 148 272q123 108 290 108h604q82 0 155.5 -35t126.5 -99h-886q-116 0 -202 -75t-103 -190l-52 -358q-9 -63 16 -122.5t79 -98.5q59 -43 138 -43h364q45 3 78.5 23t40.5 48l5 16q-5 -34 18 -60.5t58 -26.5h36q116 0 202 75t103 190l1 7h-135 q-12 -58 -57 -96q-36 -31 -83 -39q-7 -1 -20 -1q-38 0 -63.5 29t-20.5 67q3 18 11 71.5t13 91.5q13 89 -46 157t-148 68q-73 0 -128.5 -48.5t-66.5 -120.5l-32 -227q-6 -47 7 -88h-43v-2h-95q-31 0 -55 15q-52 33 -44 96l51 356q5 34 17 56q23 45 65 70.5t91 25.5h955 q20 -75 10 -149l-51 -358q-23 -162 -149 -272q-123 -108 -289 -108h-598q-129 0 -228 76q-79 61 -116 152.5t-23 188.5zM692 339l32 225q3 23 21 39.5t41 16.5q29 0 47.5 -21.5t14.5 -49.5l-32 -228q-7 -41 -46 -51h-33q-22 6 -35.5 25.5t-9.5 43.5zM1052 642q-2 -11 9 -11 q51 -3 74 -38t17 -75l-9 -62q-2 -12 10 -12t14 12l9 62q6 40 39 75t84 38q10 0 12 11q2 12 -9 12q-51 3 -74 38t-17 75l9 62q2 12 -11 12q-12 0 -14 -12l-8 -62q-6 -40 -39 -75t-84 -38q-10 0 -12 -12z" />
<glyph unicode="A" horiz-adv-x="1560" d="M19 176l75 521q28 196 179 327t350 131h524q80 0 152 -33t124 -93t74 -136q15 -51 15 -103q0 -26 -4 -52l-87 -606q-8 -56 -52 -94t-101 -38h-198q-70 0 -117 53q-38 43 -38 98q0 12 2 25l47 327h-396l-54 -371q-8 -56 -51.5 -94t-100.5 -38h-190q-70 0 -117 53 q-38 43 -38 98q0 12 2 25zM587 641h397l20 143q2 16 2 31q0 69 -48 125q-59 68 -148 68q-73 0 -128 -48t-66 -120z" />
<glyph unicode="&#xc4;" horiz-adv-x="1560" d="M19 176l75 521q28 196 179 327t350 131h524q80 0 152 -33t124 -93t74 -136q15 -51 15 -103q0 -26 -4 -52l-87 -606q-8 -56 -52 -94t-101 -38h-198q-70 0 -117 53q-38 43 -38 98q0 12 2 25l47 327h-396l-54 -371q-8 -56 -51.5 -94t-100.5 -38h-190q-70 0 -117 53 q-38 43 -38 98q0 12 2 25zM587 641h397l20 143q2 16 2 31q0 69 -48 125q-59 68 -148 68q-73 0 -128 -48t-66 -120z" />
<glyph unicode="&#xc3;" horiz-adv-x="1560" d="M19 176l75 521q28 196 179 327t350 131h524q80 0 152 -33t124 -93t74 -136q15 -51 15 -103q0 -26 -4 -52l-87 -606q-8 -56 -52 -94t-101 -38h-198q-70 0 -117 53q-38 43 -38 98q0 12 2 25l47 327h-396l-54 -371q-8 -56 -51.5 -94t-100.5 -38h-190q-70 0 -117 53 q-38 43 -38 98q0 12 2 25zM587 641h397l20 143q2 16 2 31q0 69 -48 125q-59 68 -148 68q-73 0 -128 -48t-66 -120z" />
<glyph unicode="&#xc2;" horiz-adv-x="1560" d="M19 176l75 521q28 196 179 327t350 131h524q80 0 152 -33t124 -93t74 -136q15 -51 15 -103q0 -26 -4 -52l-87 -606q-8 -56 -52 -94t-101 -38h-198q-70 0 -117 53q-38 43 -38 98q0 12 2 25l47 327h-396l-54 -371q-8 -56 -51.5 -94t-100.5 -38h-190q-70 0 -117 53 q-38 43 -38 98q0 12 2 25zM587 641h397l20 143q2 16 2 31q0 69 -48 125q-59 68 -148 68q-73 0 -128 -48t-66 -120z" />
<glyph unicode="&#xc1;" horiz-adv-x="1560" d="M19 176l75 521q28 196 179 327t350 131h524q80 0 152 -33t124 -93t74 -136q15 -51 15 -103q0 -26 -4 -52l-87 -606q-8 -56 -52 -94t-101 -38h-198q-70 0 -117 53q-38 43 -38 98q0 12 2 25l47 327h-396l-54 -371q-8 -56 -51.5 -94t-100.5 -38h-190q-70 0 -117 53 q-38 43 -38 98q0 12 2 25zM587 641h397l20 143q2 16 2 31q0 69 -48 125q-59 68 -148 68q-73 0 -128 -48t-66 -120z" />
<glyph unicode="&#xc0;" horiz-adv-x="1560" d="M19 176l75 521q28 196 179 327t350 131h524q80 0 152 -33t124 -93t74 -136q15 -51 15 -103q0 -26 -4 -52l-87 -606q-8 -56 -52 -94t-101 -38h-198q-70 0 -117 53q-38 43 -38 98q0 12 2 25l47 327h-396l-54 -371q-8 -56 -51.5 -94t-100.5 -38h-190q-70 0 -117 53 q-38 43 -38 98q0 12 2 25zM587 641h397l20 143q2 16 2 31q0 69 -48 125q-59 68 -148 68q-73 0 -128 -48t-66 -120z" />
<glyph unicode="B" horiz-adv-x="1560" d="M34 181l140 974h980q130 0 229 -76q79 -61 116 -153q27 -66 27 -135q0 -26 -4 -53l-3 -22q-11 -64 -63.5 -109t-117.5 -45q61 0 101 -40q38 -39 38 -95v-6l-6 -41q-23 -162 -149 -272q-123 -108 -289 -108h-847q-67 0 -114 50q-40 44 -40 104q0 13 2 27zM558 342 q-2 -16 -2 -32q0 -62 38 -114q48 -66 129 -78q20 -2 29 -2q73 0 128 48t66 120l10 67q1 9 1 17q-1 46 -33 82q-38 42 -95 43h-249zM600 631h288q46 0 81 29.5t42 75.5l7 46q2 16 2 32q0 62 -38 114q-48 66 -129 78q-20 2 -29 2q-73 0 -128 -48t-66 -120z" />
<glyph unicode="C" horiz-adv-x="1519" d="M44 417l52 358q23 163 148 272q123 108 290 108h603q80 0 152 -33t124 -93q89 -104 89 -235q0 -15 -1 -29h-509l3 19q2 16 2 31q0 69 -48 125q-59 68 -148 68q-73 0 -128 -48t-66 -120l-72 -500q-2 -16 -2 -31q0 -69 48 -125q59 -68 148 -68q73 0 128 48t66 120l11 75 h510q-30 -151 -145 -251q-123 -108 -290 -108h-603q-80 0 -152 33t-124 93q-90 105 -90 235q0 27 4 56z" />
<glyph unicode="D" horiz-adv-x="1566" d="M34 176l140 979h987q80 0 152 -33t124 -93q90 -105 90 -235q0 -27 -4 -56l-52 -358q-23 -163 -148 -272q-123 -108 -290 -108h-847q-69 0 -116 53q-38 43 -38 98q0 12 2 25zM559 340q-2 -16 -2 -31q0 -69 48 -125q59 -68 148 -68q73 0 128 48t66 120l72 500q2 16 2 31 q0 69 -48 125q-59 68 -148 68q-73 0 -129 -48t-66 -120z" />
<glyph unicode="E" horiz-adv-x="1519" d="M44 417l52 358q23 163 148 272q123 108 290 108h597q134 0 234 -80q71 -57 107 -139q31 -70 31 -146q0 -13 -1 -25h-510l2 15q2 16 2 31q0 46 -20 88q-25 50 -71.5 79t-100.5 30h-3q-71 0 -127 -48q-56 -50 -68 -125l-30 -204h317q32 0 52 -24t16 -55q-4 -25 -23 -42 t-45 -17h-336l-22 -149q-2 -16 -2 -31q0 -46 20 -88q25 -50 72 -79t101 -30h3q73 0 128 48q56 50 67 125l10 70h510q-30 -151 -145 -251q-123 -108 -290 -108h-597q-130 0 -229 76q-79 60 -116 152q-27 66 -27 136q0 26 4 53z" />
<glyph unicode="&#xca;" horiz-adv-x="1519" d="M44 417l52 358q23 163 148 272q123 108 290 108h597q134 0 234 -80q71 -57 107 -139q31 -70 31 -146q0 -13 -1 -25h-510l2 15q2 16 2 31q0 46 -20 88q-25 50 -71.5 79t-100.5 30h-3q-71 0 -127 -48q-56 -50 -68 -125l-30 -204h317q32 0 52 -24t16 -55q-4 -25 -23 -42 t-45 -17h-336l-22 -149q-2 -16 -2 -31q0 -46 20 -88q25 -50 72 -79t101 -30h3q73 0 128 48q56 50 67 125l10 70h510q-30 -151 -145 -251q-123 -108 -290 -108h-597q-130 0 -229 76q-79 60 -116 152q-27 66 -27 136q0 26 4 53z" />
<glyph unicode="&#xc9;" horiz-adv-x="1519" d="M44 417l52 358q23 163 148 272q123 108 290 108h597q134 0 234 -80q71 -57 107 -139q31 -70 31 -146q0 -13 -1 -25h-510l2 15q2 16 2 31q0 46 -20 88q-25 50 -71.5 79t-100.5 30h-3q-71 0 -127 -48q-56 -50 -68 -125l-30 -204h317q32 0 52 -24t16 -55q-4 -25 -23 -42 t-45 -17h-336l-22 -149q-2 -16 -2 -31q0 -46 20 -88q25 -50 72 -79t101 -30h3q73 0 128 48q56 50 67 125l10 70h510q-30 -151 -145 -251q-123 -108 -290 -108h-597q-130 0 -229 76q-79 60 -116 152q-27 66 -27 136q0 26 4 53z" />
<glyph unicode="&#xc8;" horiz-adv-x="1519" d="M44 417l52 358q23 163 148 272q123 108 290 108h597q134 0 234 -80q71 -57 107 -139q31 -70 31 -146q0 -13 -1 -25h-510l2 15q2 16 2 31q0 46 -20 88q-25 50 -71.5 79t-100.5 30h-3q-71 0 -127 -48q-56 -50 -68 -125l-30 -204h317q32 0 52 -24t16 -55q-4 -25 -23 -42 t-45 -17h-336l-22 -149q-2 -16 -2 -31q0 -46 20 -88q25 -50 72 -79t101 -30h3q73 0 128 48q56 50 67 125l10 70h510q-30 -151 -145 -251q-123 -108 -290 -108h-597q-130 0 -229 76q-79 60 -116 152q-27 66 -27 136q0 26 4 53z" />
<glyph unicode="F" horiz-adv-x="1531" d="M34 176l140 979h1415l-19 -134q-15 -106 -96.5 -176.5t-188.5 -70.5h-259l5 37q2 16 2 31q0 46 -20 88q-25 50 -71.5 79t-100.5 30h-3q-73 0 -128.5 -50t-66.5 -124q-29 -203 -32 -225h364q31 0 52 -23.5t16 -54.5l-1 -1q-4 -25 -22.5 -41.5t-44.5 -16.5h-385l-52 -371 q-8 -56 -52 -94t-101 -38h-194q-79 0 -124 56q-35 42 -35 96q0 12 2 24z" />
<glyph unicode="G" horiz-adv-x="1538" d="M44 417l52 358q23 163 148 272q123 108 290 108h603q80 0 152 -33t124 -93q90 -105 90 -235q0 -14 -1 -29h-510l3 19q2 16 2 31q0 69 -48 125q-59 68 -148 68q-73 0 -128 -48t-66 -120l-72 -500q-2 -16 -2 -31q0 -69 48 -125q59 -68 148 -68q73 0 128 48t66 120l30 209 h-135l-27 -190q-3 -23 -21 -38t-41 -15q-29 0 -47.5 21.5t-14.5 49.5l45 310h770l-38 -272q-30 -151 -145 -251q-123 -108 -290 -108h-603q-80 0 -152 33t-124 93q-90 105 -90 235q0 27 4 56z" />
<glyph unicode="H" horiz-adv-x="1587" d="M31 176l122 847q8 56 52 94t101 38h189q70 0 117 -53q38 -43 38 -98q0 -12 -2 -25l-48 -338h396l55 382q8 56 52 94t101 38h198q70 0 117 -53q38 -43 38 -98q0 -12 -2 -25l-121 -847q-8 -56 -52 -94t-101 -38h-199q-69 0 -116 53q-38 44 -38 101q0 11 1 22l47 327h-396 l-53 -371q-8 -56 -52 -94t-101 -38h-190q-69 0 -116 53q-38 44 -38 101q0 11 1 22z" />
<glyph unicode="I" horiz-adv-x="696" d="M10 0l147 1023q8 57 52 94.5t101 37.5h377l-147 -1023q-8 -56 -52 -94t-101 -38h-377z" />
<glyph unicode="&#xce;" horiz-adv-x="696" d="M10 0l147 1023q8 57 52 94.5t101 37.5h377l-147 -1023q-8 -56 -52 -94t-101 -38h-377z" />
<glyph unicode="&#xcd;" horiz-adv-x="696" d="M10 0l147 1023q8 57 52 94.5t101 37.5h377l-147 -1023q-8 -56 -52 -94t-101 -38h-377z" />
<glyph unicode="&#xcc;" horiz-adv-x="696" d="M10 0l147 1023q8 57 52 94.5t101 37.5h377l-147 -1023q-8 -56 -52 -94t-101 -38h-377z" />
<glyph unicode="J" horiz-adv-x="1529" d="M-12 390h510l-3 -15q-3 -17 -3 -33q0 -49 23 -90q26 -49 73 -77t101 -28q53 0 98.5 26.5t71.5 71.5q24 55 33 117l80 513h-335l40 280h850q-93 -642 -113 -793q-36 -178 -183 -266q-20 -12 -43 -23q-152 -73 -387 -73h-442q-134 0 -234 80q-71 57 -107 139 q-31 70 -31 146q0 12 1 25z" />
<glyph unicode="K" horiz-adv-x="1579" d="M32 176l121 846q8 57 52 95t101 38h194q79 0 124 -56q35 -42 35 -96q0 -12 -2 -24l-31 -214h55q245 0 490 -27q133 -14 223 -113q89 -98 88 -228q0 -25 -3 -44l-32 -221q-8 -57 -51 -94.5t-101 -37.5h-181q-78 0 -123 56q-36 43 -36 97q0 11 2 23l25 171q3 22 3 43 q0 62 -28 117q-34 66 -96.5 103.5t-134.5 37.5h-116l-74 -516q-8 -57 -51.5 -94.5t-101.5 -37.5h-194q-79 0 -124 56q-35 42 -35 96q0 12 2 24zM918 758q98 73 153 132q95 101 150 223q19 42 65 42h271q14 0 26 -12q11 -11 8 -27q-22 -153 -187.5 -242t-485.5 -116z" />
<glyph unicode="L" horiz-adv-x="1507" d="M13 0l165 1155h502l-117 -815q-2 -16 -2 -31q0 -69 48 -125q59 -68 148 -68q73 0 128 48t66 120l11 75h510q-30 -151 -145 -251q-123 -108 -290 -108h-1024z" />
<glyph unicode="M" horiz-adv-x="2480" d="M34 176l140 979h1893q80 0 152 -33t124 -93q90 -105 90 -235q0 -27 -4 -56l-87 -606q-8 -57 -52 -94.5t-101 -37.5h-198q-70 0 -117 53q-38 43 -38 98q0 12 2 25l87 608q2 16 2 31q0 69 -48 125q-59 68 -148 68q-73 0 -128 -48t-66 -120l-101 -708q-8 -56 -52 -94 t-101 -38h-199q-69 0 -116 53q-38 44 -38 101q0 11 1 22l88 608q2 16 2 31q0 69 -48 125q-59 68 -148 68q-73 0 -129 -48t-66 -120l-101 -708q-8 -56 -52 -94t-101 -38h-190q-69 0 -116 53q-38 43 -38 98q0 12 2 25z" />
<glyph unicode="N" horiz-adv-x="1574" d="M34 176l140 979h987q80 0 152 -33t124 -93q90 -105 90 -235q0 -27 -4 -56l-87 -606q-8 -56 -52 -94t-101 -38h-199q-69 0 -116 53q-38 44 -38 101q0 11 1 22l88 608q2 16 2 31q0 69 -48 125q-59 68 -148 68q-73 0 -129 -48t-66 -120l-101 -708q-8 -57 -52 -94.5 t-101 -37.5h-190q-69 0 -116 53q-38 43 -38 98q0 12 2 25z" />
<glyph unicode="O" horiz-adv-x="1542" d="M44 417l52 358q23 163 148 272q123 108 290 108h603q80 0 152 -33t124 -93q90 -105 90 -235q0 -27 -4 -56l-52 -358q-23 -163 -148 -272q-123 -108 -290 -108h-603q-80 0 -152 33t-124 93q-90 105 -90 235q0 27 4 56zM535 340q-2 -16 -2 -31q0 -69 48 -125 q59 -68 148 -68q73 0 128 48t66 120l72 500q2 16 2 31q0 69 -48 125q-59 68 -148 68q-73 0 -129 -48t-66 -120z" />
<glyph unicode="&#xd6;" horiz-adv-x="1542" d="M44 417l52 358q23 163 148 272q123 108 290 108h603q80 0 152 -33t124 -93q90 -105 90 -235q0 -27 -4 -56l-52 -358q-23 -163 -148 -272q-123 -108 -290 -108h-603q-80 0 -152 33t-124 93q-90 105 -90 235q0 27 4 56zM535 340q-2 -16 -2 -31q0 -69 48 -125 q59 -68 148 -68q73 0 128 48t66 120l72 500q2 16 2 31q0 69 -48 125q-59 68 -148 68q-73 0 -129 -48t-66 -120z" />
<glyph unicode="&#xd5;" horiz-adv-x="1542" d="M44 417l52 358q23 163 148 272q123 108 290 108h603q80 0 152 -33t124 -93q90 -105 90 -235q0 -27 -4 -56l-52 -358q-23 -163 -148 -272q-123 -108 -290 -108h-603q-80 0 -152 33t-124 93q-90 105 -90 235q0 27 4 56zM535 340q-2 -16 -2 -31q0 -69 48 -125 q59 -68 148 -68q73 0 128 48t66 120l72 500q2 16 2 31q0 69 -48 125q-59 68 -148 68q-73 0 -129 -48t-66 -120z" />
<glyph unicode="&#xd4;" horiz-adv-x="1542" d="M44 417l52 358q23 163 148 272q123 108 290 108h603q80 0 152 -33t124 -93q90 -105 90 -235q0 -27 -4 -56l-52 -358q-23 -163 -148 -272q-123 -108 -290 -108h-603q-80 0 -152 33t-124 93q-90 105 -90 235q0 27 4 56zM535 340q-2 -16 -2 -31q0 -69 48 -125 q59 -68 148 -68q73 0 128 48t66 120l72 500q2 16 2 31q0 69 -48 125q-59 68 -148 68q-73 0 -129 -48t-66 -120z" />
<glyph unicode="&#xd3;" horiz-adv-x="1542" d="M44 417l52 358q23 163 148 272q123 108 290 108h603q80 0 152 -33t124 -93q90 -105 90 -235q0 -27 -4 -56l-52 -358q-23 -163 -148 -272q-123 -108 -290 -108h-603q-80 0 -152 33t-124 93q-90 105 -90 235q0 27 4 56zM535 340q-2 -16 -2 -31q0 -69 48 -125 q59 -68 148 -68q73 0 128 48t66 120l72 500q2 16 2 31q0 69 -48 125q-59 68 -148 68q-73 0 -129 -48t-66 -120z" />
<glyph unicode="&#xd2;" horiz-adv-x="1542" d="M44 417l52 358q23 163 148 272q123 108 290 108h603q80 0 152 -33t124 -93q90 -105 90 -235q0 -27 -4 -56l-52 -358q-23 -163 -148 -272q-123 -108 -290 -108h-603q-80 0 -152 33t-124 93q-90 105 -90 235q0 27 4 56zM535 340q-2 -16 -2 -31q0 -69 48 -125 q59 -68 148 -68q73 0 128 48t66 120l72 500q2 16 2 31q0 69 -48 125q-59 68 -148 68q-73 0 -129 -48t-66 -120z" />
<glyph unicode="P" horiz-adv-x="1548" d="M34 176l140 979h1028q122 0 211 -70q73 -57 107 -141q25 -61 25 -125q0 -24 -4 -49q-23 -163 -148 -272q-123 -108 -290 -108h-528l-37 -258q-8 -57 -51.5 -94.5t-101.5 -37.5h-194q-79 0 -124 56q-35 42 -35 96q0 12 2 24zM590 507h254q70 0 123 45.5t63 114.5l24 167 q3 20 0 40q-11 74 -64.5 119.5t-122.5 45.5h-32q-72 0 -126 -47.5t-65 -118.5z" />
<glyph unicode="Q" horiz-adv-x="1628" d="M44 417l52 358q23 163 148 272q123 108 290 108h597q130 0 229 -76q79 -61 116 -153q27 -66 27 -135q0 -26 -4 -53q-53 -363 -53 -366l-1 1q-1 1 -2 1t-1 0.5t-1 0.5q-96 51 -206 55h-19q-100 0 -192 -38l-57 -23q269 -28 414.5 -113.5t164.5 -219.5q2 -13 -7 -25 q-9 -11 -24 -11h-290q-27 70 -65 131t-81.5 104.5t-70 66.5t-59.5 47q-8 6 -11 8q2 10 28 207t29 220q2 16 2 31q0 69 -48 125q-59 68 -148 68q-73 0 -129 -48t-66 -120l-71 -496q-3 -17 -3 -33q0 -48 23 -89q26 -49 73 -77.5t101 -28.5q55 0 101.5 28.5t71.5 75.5 q25 -19 47.5 -40.5t39.5 -41.5t31 -38.5t24.5 -36t17 -29t12.5 -22.5t6 -12h-668q-130 0 -229 76q-79 61 -116 152q-27 67 -27 136q0 26 4 53z" />
<glyph unicode="R" horiz-adv-x="1570" d="M34 176l140 979h981q130 0 229 -76q79 -61 116 -153q27 -66 27 -135q0 -26 -4 -53l-4 -22q-11 -65 -63.5 -109.5t-116.5 -44.5q61 0 101 -40q38 -39 37 -95v-6l-41 -289q-8 -57 -51.5 -94.5t-101.5 -37.5h-199q-70 0 -116 53q-38 44 -39 99q0 12 2 24l25 175q1 9 1 17 q0 46 -32 82q-38 42 -95 43h-249l-52 -361q-8 -57 -51.5 -94.5t-101.5 -37.5h-190q-70 0 -116 53q-38 44 -38 99q0 12 2 24zM600 631h290q46 0 80.5 30t41.5 76l6 45q2 16 2 32q0 62 -38 114q-48 66 -129 78q-18 2 -28 2q-73 0 -129 -48t-66 -120z" />
<glyph unicode="S" horiz-adv-x="1515" d="M27 390h510l-3 -15q-2 -17 -3 -33q0 -49 23 -90q26 -49 73 -77t101 -28q73 0 128 48t66 120q2 15 2 29q0 64 -45 116q-55 64 -138 64h-408q-104 0 -178 74t-74 177q23 163 148 272q123 108 290 108h598q134 0 234 -80q71 -57 107 -139q30 -70 29 -145v-26h-509l2 15 q2 17 2 33q0 48 -22 89q-26 49 -73 77.5t-101 28.5q-73 0 -128 -48t-66 -120q-2 -15 -2 -29q0 -65 45 -117q55 -64 138 -63h442q99 0 165 -75q55 -63 55 -141q0 -16 -2 -32q-21 -164 -148 -275q-123 -108 -290 -108h-598q-134 0 -234 80q-71 57 -107 139q-30 70 -30 145 q0 13 1 26z" />
<glyph unicode="T" horiz-adv-x="1208" d="M47 875l40 280h1176l-40 -280h-329l-126 -875h-328q-78 0 -123 56q-36 43 -36 97q0 11 2 23l101 699h-337z" />
<glyph unicode="U" horiz-adv-x="1574" d="M52 417l87 605q8 56 52 94.5t101 38.5h199q69 0 116 -53q38 -44 38 -101q0 -11 -1 -22l-88 -608q-2 -16 -2 -31q0 -69 48 -125q59 -68 148 -68h170l126 876q8 56 52 94t101 38h190q69 0 116 -53q38 -43 38 -98q0 -12 -2 -25l-140 -979h-987q-80 0 -152 33t-124 93 q-90 105 -90 235q0 27 4 56z" />
<glyph unicode="&#xdb;" horiz-adv-x="1574" d="M52 417l87 605q8 56 52 94.5t101 38.5h199q69 0 116 -53q38 -44 38 -101q0 -11 -1 -22l-88 -608q-2 -16 -2 -31q0 -69 48 -125q59 -68 148 -68h170l126 876q8 56 52 94t101 38h190q69 0 116 -53q38 -43 38 -98q0 -12 -2 -25l-140 -979h-987q-80 0 -152 33t-124 93 q-90 105 -90 235q0 27 4 56z" />
<glyph unicode="&#xda;" horiz-adv-x="1574" d="M52 417l87 605q8 56 52 94.5t101 38.5h199q69 0 116 -53q38 -44 38 -101q0 -11 -1 -22l-88 -608q-2 -16 -2 -31q0 -69 48 -125q59 -68 148 -68h170l126 876q8 56 52 94t101 38h190q69 0 116 -53q38 -43 38 -98q0 -12 -2 -25l-140 -979h-987q-80 0 -152 33t-124 93 q-90 105 -90 235q0 27 4 56z" />
<glyph unicode="&#xd9;" horiz-adv-x="1574" d="M52 417l87 605q8 56 52 94.5t101 38.5h199q69 0 116 -53q38 -44 38 -101q0 -11 -1 -22l-88 -608q-2 -16 -2 -31q0 -69 48 -125q59 -68 148 -68h170l126 876q8 56 52 94t101 38h190q69 0 116 -53q38 -43 38 -98q0 -12 -2 -25l-140 -979h-987q-80 0 -152 33t-124 93 q-90 105 -90 235q0 27 4 56z" />
<glyph unicode="V" horiz-adv-x="1431" d="M70 974q-3 16 -3 31q0 54 37 96q47 55 118 55h191q64 0 97 -30t52 -91.5t39.5 -134.5t79 -178.5t150.5 -204.5l73 506q8 56 52 94.5t101 38.5h189q69 0 117 -54q38 -43 38 -98q0 -12 -2 -25l-140 -978h-3h-3q-6 0 -18 -0.5t-19 -0.5q-53 0 -110.5 5t-148 23t-175.5 48.5 t-184 88.5t-182 135q-273 254 -346 674z" />
<glyph unicode="W" horiz-adv-x="2480" d="M52 417l87 606q8 57 52 94.5t101 37.5h199q69 0 116 -53q38 -44 38 -101q0 -11 -1 -22l-88 -608q-2 -16 -2 -31q0 -70 48 -126q58 -67 148 -67q73 0 128 48t66 120l102 708q8 56 52 94t101 38h198q70 0 117 -53q38 -43 38 -98q0 -12 -2 -25l-87 -608q-2 -16 -2 -31 q0 -69 48 -125q59 -68 148 -68q73 0 128 48t66 120l102 707q8 57 51.5 95t100.5 38h190q70 0 117 -53q38 -43 38 -98q0 -12 -2 -25l-141 -979h-1893q-80 0 -152 33t-124 93q-90 105 -90 235q0 27 4 56z" />
<glyph unicode="X" horiz-adv-x="1542" d="M9 175q40 123 191.5 214t356.5 114l-53 -371q-8 -57 -51.5 -94.5t-101.5 -37.5h-185q-76 0 -123 56q-36 43 -36 96q0 11 2 23zM103 832l27 191q8 57 51.5 94.5t101.5 37.5h186q78 0 123 -56q36 -43 36 -97q0 -11 -2 -23l-8 -56q-3 -20 -3 -39q1 -88 61 -158 q74 -85 186 -85h289q131 0 218 -100q71 -82 71 -184q0 -22 -3 -46l-26 -179q-8 -57 -51.5 -94.5t-101.5 -37.5h-194q-79 0 -124 56q-35 42 -35 96q0 12 2 24l6 44q3 20 3 39q0 89 -61 159q-74 86 -186 85h-281q-132 -1 -218 99q-71 82 -70 184q0 23 3 46zM973 641l55 381 q8 57 51.5 95t101.5 38h194q79 0 124 -56q36 -43 36 -97q0 -11 -2 -23h-1q-34 -127 -190 -221t-369 -117z" />
<glyph unicode="Y" horiz-adv-x="1505" d="M61 773l38 278l-2 -1q16 47 56.5 76t90.5 29h255q41 0 68 -30q23 -24 23 -58q0 -6 -1 -13l-31 -253q-2 -18 -2 -35q0 -96 66 -171q79 -89 196 -89h116l74 517q8 56 51.5 94t100.5 38h199q69 0 116 -53q38 -44 38 -101q0 -11 -1 -22l-40 -275q-18 -133 -122 -224 q-102 -90 -239 -90h-154l-37 -258q-8 -56 -52 -94t-101 -38h-190q-69 0 -116 53q-38 44 -38 101q0 11 1 22l31 196l-126 25q-131 25 -209 134q-62 88 -62 193q0 24 3 49z" />
<glyph unicode="&#xdd;" horiz-adv-x="1505" d="M61 773l38 278l-2 -1q16 47 56.5 76t90.5 29h255q41 0 68 -30q23 -24 23 -58q0 -6 -1 -13l-31 -253q-2 -18 -2 -35q0 -96 66 -171q79 -89 196 -89h116l74 517q8 56 51.5 94t100.5 38h199q69 0 116 -53q38 -44 38 -101q0 -11 -1 -22l-40 -275q-18 -133 -122 -224 q-102 -90 -239 -90h-154l-37 -258q-8 -56 -52 -94t-101 -38h-190q-69 0 -116 53q-38 44 -38 101q0 11 1 22l31 196l-126 25q-131 25 -209 134q-62 88 -62 193q0 24 3 49z" />
<glyph unicode="Z" horiz-adv-x="1566" d="M-3 0l40 281q25 170 156 278q123 103 287 103h510l17 118q2 16 2 31q0 46 -20 88q-25 50 -72 79t-101 30h-3q-72 0 -127 -48q-56 -50 -67 -125l-6 -39h-502l52 359h1408l-40 -281q-25 -170 -156 -278q-123 -103 -286 -103h-520l-22 -153q-2 -16 -2 -31q0 -69 48 -125 q34 -38 83 -56q32 -12 66 -12q17 0 35 3q62 11 106 58.5t53 111.5l11 70h510l-52 -359h-1408z" />
<glyph unicode="[" horiz-adv-x="737" d="M65 417l51 358q23 163 148 272q123 108 290 108h188l-19 -131h-149q-73 0 -128 -48.5t-66 -120.5l-72 -500q-13 -88 46 -156t148 -68h93l-19 -131h-150q-80 0 -152 33t-124 93t-74 136t-11 155z" />
<glyph unicode="\" horiz-adv-x="866" d="M121 979q-10 71 36 123q47 53 116 53h199q57 0 101 -38t52 -95l121 -846q10 -71 -36 -123q-47 -53 -117 -53h-199q-57 0 -100.5 38t-51.5 95z" />
<glyph unicode="]" horiz-adv-x="737" d="M-6 0l19 131h149q73 0 128.5 48.5t66.5 120.5l71 499q13 89 -46 157t-148 68h-93l19 131h150q80 0 152 -33t124 -93q109 -127 86 -291l-52 -358q-23 -163 -148 -272q-123 -108 -290 -108h-188z" />
<glyph unicode="a" horiz-adv-x="1536" d="M45 385q23 161 149 271q125 109 290 109h1024l-110 -765h-450l19 133q-118 -115 -277 -133h-311q-74 0 -140.5 30.5t-114.5 85.5q-48 56 -68 126q-14 47 -14 95q0 24 3 48zM534 330q-2 -16 -2 -31q0 -66 46 -118q57 -65 141 -65h37q70 0 123 46t63 115l31 218l22 153 h-253q-70 0 -122.5 -45.5t-62.5 -114.5z" />
<glyph unicode="&#xe4;" horiz-adv-x="1536" d="M45 385q23 161 149 271q125 109 290 109h1024l-110 -765h-450l19 133q-118 -115 -277 -133h-311q-74 0 -140.5 30.5t-114.5 85.5q-48 56 -68 126q-14 47 -14 95q0 24 3 48zM534 330q-2 -16 -2 -31q0 -66 46 -118q57 -65 141 -65h37q70 0 123 46t63 115l31 218l22 153 h-253q-70 0 -122.5 -45.5t-62.5 -114.5z" />
<glyph unicode="&#xe3;" horiz-adv-x="1536" d="M45 385q23 161 149 271q125 109 290 109h1024l-110 -765h-450l19 133q-118 -115 -277 -133h-311q-74 0 -140.5 30.5t-114.5 85.5q-48 56 -68 126q-14 47 -14 95q0 24 3 48zM534 330q-2 -16 -2 -31q0 -66 46 -118q57 -65 141 -65h37q70 0 123 46t63 115l31 218l22 153 h-253q-70 0 -122.5 -45.5t-62.5 -114.5z" />
<glyph unicode="&#xe2;" horiz-adv-x="1536" d="M45 385q23 161 149 271q125 109 290 109h1024l-110 -765h-450l19 133q-118 -115 -277 -133h-311q-74 0 -140.5 30.5t-114.5 85.5q-48 56 -68 126q-14 47 -14 95q0 24 3 48zM534 330q-2 -16 -2 -31q0 -66 46 -118q57 -65 141 -65h37q70 0 123 46t63 115l31 218l22 153 h-253q-70 0 -122.5 -45.5t-62.5 -114.5z" />
<glyph unicode="&#xe1;" horiz-adv-x="1536" d="M45 385q23 161 149 271q125 109 290 109h1024l-110 -765h-450l19 133q-118 -115 -277 -133h-311q-74 0 -140.5 30.5t-114.5 85.5q-48 56 -68 126q-14 47 -14 95q0 24 3 48zM534 330q-2 -16 -2 -31q0 -66 46 -118q57 -65 141 -65h37q70 0 123 46t63 115l31 218l22 153 h-253q-70 0 -122.5 -45.5t-62.5 -114.5z" />
<glyph unicode="&#xe0;" horiz-adv-x="1536" d="M45 385q23 161 149 271q125 109 290 109h1024l-110 -765h-450l19 133q-118 -115 -277 -133h-311q-74 0 -140.5 30.5t-114.5 85.5q-48 56 -68 126q-14 47 -14 95q0 24 3 48zM534 330q-2 -16 -2 -31q0 -66 46 -118q57 -65 141 -65h37q70 0 123 46t63 115l31 218l22 153 h-253q-70 0 -122.5 -45.5t-62.5 -114.5z" />
<glyph unicode="b" horiz-adv-x="1544" d="M48 176l122 847q8 56 52 94t101 38h198q70 0 117 -53q38 -43 38 -98q0 -12 -2 -25l-31 -214h522q73 0 140 -30.5t115 -86.5q83 -96 83 -215q0 -26 -4 -53q-23 -163 -148 -272q-123 -108 -290 -108h-860q-70 0 -117 53q-38 43 -38 98q0 12 2 25zM580 330q-2 -16 -3 -31 q0 -66 47 -118q57 -65 141 -65h37q70 0 123 46t63 115l22 157q2 16 2 31q0 66 -46 119q-56 64 -141 64h-37q-70 0 -123 -45.5t-63 -114.5z" />
<glyph unicode="c" horiz-adv-x="1490" d="M45 385q23 161 149 271q125 109 289 109h636q73 0 140 -30.5t115 -86.5q74 -85 82 -199h-490v14q0 68 -45 121q-56 64 -142 64h-37q-70 0 -122.5 -45.5t-62.5 -114.5l-23 -158q-2 -16 -2 -31q0 -66 46 -118q57 -65 141 -65h37q70 0 123 46t63 115l5 38h492 q-37 -124 -134 -207q-123 -108 -290 -108h-636q-74 0 -140.5 30.5t-114.5 85.5q-48 56 -68 126q-14 47 -14 95q0 24 3 48z" />
<glyph unicode="d" horiz-adv-x="1548" d="M45 385q23 161 149 271q125 109 289 109h529l37 258q8 56 52 94t101 38h198q70 0 117 -53q38 -43 38 -98q0 -12 -2 -25l-122 -847q-8 -56 -51.5 -94t-100.5 -38h-900q-74 0 -140.5 30.5t-114.5 85.5q-48 56 -68 126q-14 47 -14 95q0 24 3 48zM534 330q-2 -16 -2 -31 q0 -66 46 -118q57 -65 141 -65h37q70 0 123 46t63 115l22 157q2 16 2 32q0 66 -45 118q-56 64 -142 64h-37q-70 0 -122.5 -45.5t-62.5 -114.5z" />
<glyph unicode="e" horiz-adv-x="1495" d="M45 385q23 161 149 271q125 109 289 109h636q73 0 140 -30.5t115 -86.5q83 -96 82 -215q0 -26 -3 -53q-4 -31 -14 -65h-627l-3 -19q-3 -20 -18 -33t-35 -13h-37q-25 0 -41 18.5t-12 42.5l23 158q3 20 18 33t35 13h37q25 0 41 -19t12 -43l-1 -4h135v14q0 68 -45 121 q-56 64 -142 64h-37q-70 0 -122.5 -45.5t-62.5 -114.5l-24 -173v-14q0 -68 45 -120q57 -65 141 -65h37q84 0 142 66h474q-32 -43 -67 -74q-123 -108 -290 -108h-636q-74 0 -140.5 30.5t-114.5 85.5q-48 56 -68 126q-14 47 -14 95q0 24 3 48z" />
<glyph unicode="&#xea;" horiz-adv-x="1495" d="M45 385q23 161 149 271q125 109 289 109h636q73 0 140 -30.5t115 -86.5q83 -96 82 -215q0 -26 -3 -53q-4 -31 -14 -65h-627l-3 -19q-3 -20 -18 -33t-35 -13h-37q-25 0 -41 18.5t-12 42.5l23 158q3 20 18 33t35 13h37q25 0 41 -19t12 -43l-1 -4h135v14q0 68 -45 121 q-56 64 -142 64h-37q-70 0 -122.5 -45.5t-62.5 -114.5l-24 -173v-14q0 -68 45 -120q57 -65 141 -65h37q84 0 142 66h474q-32 -43 -67 -74q-123 -108 -290 -108h-636q-74 0 -140.5 30.5t-114.5 85.5q-48 56 -68 126q-14 47 -14 95q0 24 3 48z" />
<glyph unicode="&#xe9;" horiz-adv-x="1495" d="M45 385q23 161 149 271q125 109 289 109h636q73 0 140 -30.5t115 -86.5q83 -96 82 -215q0 -26 -3 -53q-4 -31 -14 -65h-627l-3 -19q-3 -20 -18 -33t-35 -13h-37q-25 0 -41 18.5t-12 42.5l23 158q3 20 18 33t35 13h37q25 0 41 -19t12 -43l-1 -4h135v14q0 68 -45 121 q-56 64 -142 64h-37q-70 0 -122.5 -45.5t-62.5 -114.5l-24 -173v-14q0 -68 45 -120q57 -65 141 -65h37q84 0 142 66h474q-32 -43 -67 -74q-123 -108 -290 -108h-636q-74 0 -140.5 30.5t-114.5 85.5q-48 56 -68 126q-14 47 -14 95q0 24 3 48z" />
<glyph unicode="&#xe8;" horiz-adv-x="1495" d="M45 385q23 161 149 271q125 109 289 109h636q73 0 140 -30.5t115 -86.5q83 -96 82 -215q0 -26 -3 -53q-4 -31 -14 -65h-627l-3 -19q-3 -20 -18 -33t-35 -13h-37q-25 0 -41 18.5t-12 42.5l23 158q3 20 18 33t35 13h37q25 0 41 -19t12 -43l-1 -4h135v14q0 68 -45 121 q-56 64 -142 64h-37q-70 0 -122.5 -45.5t-62.5 -114.5l-24 -173v-14q0 -68 45 -120q57 -65 141 -65h37q84 0 142 66h474q-32 -43 -67 -74q-123 -108 -290 -108h-636q-74 0 -140.5 30.5t-114.5 85.5q-48 56 -68 126q-14 47 -14 95q0 24 3 48z" />
<glyph unicode="f" horiz-adv-x="970" d="M48 181l58 400l16 116q28 196 179 327t350 131h527q132 0 231 -78q70 -55 107 -135q33 -73 33 -151v-17h-509l5 37q3 17 3 34q0 45 -20 85q-25 50 -72 79t-101 30h-3q-72 0 -128 -49q-56 -50 -67 -125q-11 -78 -28.5 -198.5t-23.5 -163.5h276q32 0 52 -24t16 -55 q-4 -25 -23 -42t-45 -17h-296l-33 -233q-8 -57 -51.5 -94.5t-101.5 -37.5h-199q-67 0 -114 50q-40 44 -40 104q0 13 2 27z" />
<glyph unicode="g" horiz-adv-x="1536" d="M45 388q23 161 149 271q125 109 289 109h1025l-115 -800q-25 -148 -137 -245q-117 -101 -271 -101h-289q-43 0 -60 39q-16 35 5 56q9 8 21 10q105 13 186 91.5t96 184.5h-565q-74 0 -140.5 30.5t-114.5 85.5q-48 56 -68 126q-14 47 -14 95q0 24 3 48zM534 333 q-2 -14 -2 -28q0 -37 14 -71q21 -49 64 -80q48 -35 113 -35h33q70 0 123 46t63 115l22 157q2 14 2 28q0 37 -14 71q-21 49 -64 80q-48 35 -113 35h-33q-70 0 -123 -45.5t-63 -114.5z" />
<glyph unicode="h" horiz-adv-x="1556" d="M48 176l122 847q8 56 52 94t101 38h198q70 0 117 -53q38 -43 38 -98q0 -12 -2 -25l-31 -214h496q79 0 150 -33t122 -92q51 -60 73 -135q15 -50 16 -102q0 -25 -4 -50l-32 -221q-8 -56 -52 -94t-101 -38h-184q-70 0 -117 53q-38 43 -38 98q0 12 2 25l25 176q3 21 3 41 q0 92 -64 166q-77 89 -196 89h-116l-74 -516q-8 -56 -52 -94t-101 -38h-198q-70 0 -117 53q-38 43 -38 98q0 12 2 25z" />
<glyph unicode="i" horiz-adv-x="647" d="M42 176l46 318q8 56 51.5 94.5t100.5 38.5h199q69 0 117 -54q38 -43 38 -98q0 -12 -2 -25l-46 -318q-8 -56 -52 -94t-101 -38h-198q-70 0 -117 53q-38 43 -38 98q0 12 2 25zM129 752q11 53 54 88t98 35h376q-11 -53 -53.5 -88t-97.5 -35h-377z" />
<glyph unicode="&#xee;" horiz-adv-x="647" d="M42 176l46 318q8 56 51.5 94.5t100.5 38.5h199q69 0 117 -54q38 -43 38 -98q0 -12 -2 -25l-46 -318q-8 -56 -52 -94t-101 -38h-198q-70 0 -117 53q-38 43 -38 98q0 12 2 25zM129 752q11 53 54 88t98 35h376q-11 -53 -53.5 -88t-97.5 -35h-377z" />
<glyph unicode="&#xed;" horiz-adv-x="647" d="M42 176l46 318q8 56 51.5 94.5t100.5 38.5h199q69 0 117 -54q38 -43 38 -98q0 -12 -2 -25l-46 -318q-8 -56 -52 -94t-101 -38h-198q-70 0 -117 53q-38 43 -38 98q0 12 2 25zM129 752q11 53 54 88t98 35h376q-11 -53 -53.5 -88t-97.5 -35h-377z" />
<glyph unicode="&#xec;" horiz-adv-x="647" d="M42 176l46 318q8 56 51.5 94.5t100.5 38.5h199q69 0 117 -54q38 -43 38 -98q0 -12 -2 -25l-46 -318q-8 -56 -52 -94t-101 -38h-198q-70 0 -117 53q-38 43 -38 98q0 12 2 25zM129 752q11 53 54 88t98 35h376q-11 -53 -53.5 -88t-97.5 -35h-377z" />
<glyph unicode="j" horiz-adv-x="671" d="M-262 -363q114 45 193 142.5t96 219.5l22 153h-2l52 360q8 57 52 95t101 38h211q70 0 117 -53q38 -43 38 -98q0 -12 -2 -25q-58 -400 -67 -470q-40 -200 -226 -289q-152 -73 -387 -73h-198zM128 752q11 53 53.5 88t97.5 35h376q-11 -53 -53.5 -88t-97.5 -35h-376z" />
<glyph unicode="k" horiz-adv-x="1544" d="M48 176l123 856q7 53 48 88t94 35h208q91 0 137 -82q18 -32 18 -68q0 -12 -2 -25l-88 -611h193q107 0 197 -11t153.5 -28t114.5 -42.5t82 -49.5t53.5 -55.5t33 -53t16 -49t5.5 -38v-24.5v-5q0 -13 -10 -13h-372q-42 0 -77 23t-50 62q-15 41 -44 76q-75 89 -193 92l-118 2 l-19 -132q-7 -53 -48 -88t-94 -35h-209q-52 0 -90 29q-36 27 -52 66q-12 28 -12 58q0 12 2 23zM859 371q32 7 54 23q198 143 285 371h294q21 0 37.5 -15t19.5 -36q-17 -91 -112 -167.5t-247 -123t-331 -52.5z" />
<glyph unicode="l" horiz-adv-x="669" d="M48 176l122 847q8 56 52 94t101 38h198q70 0 117 -53q38 -43 38 -98q0 -12 -2 -25l-122 -847q-8 -56 -52 -94t-101 -38h-198q-70 0 -117 53q-38 43 -38 98q0 12 2 25z" />
<glyph unicode="m" horiz-adv-x="2465" d="M48 176l85 589h1916q79 0 150 -33t122 -92q51 -58 73 -134q15 -50 15 -102q0 -26 -4 -51l-32 -221q-8 -56 -51.5 -94t-100.5 -38h-185q-70 0 -117 53q-38 43 -38 98q0 12 2 25l26 176q3 21 3 41q0 90 -62 164q-74 88 -193 91l-118 3l-75 -519q-8 -56 -52 -94t-101 -38 h-184q-70 0 -117 53q-38 43 -38 98q0 12 2 25l25 176q3 21 3 41q0 92 -64 166q-77 89 -196 89h-116l-74 -516q-8 -56 -52 -94t-101 -38h-198q-70 0 -117 53q-38 43 -38 98q0 12 2 25z" />
<glyph unicode="n" horiz-adv-x="1556" d="M48 176l85 589h1006q79 0 150 -33t122 -92q89 -104 89 -232q0 -27 -4 -55l-32 -221q-8 -56 -52 -94t-101 -38h-184q-70 0 -117 53q-38 43 -38 98q0 12 2 25l25 176q3 21 3 41q0 92 -64 166q-77 89 -196 89h-116l-74 -516q-8 -56 -52 -94t-101 -38h-198q-70 0 -117 53 q-38 43 -38 98q0 12 2 25z" />
<glyph unicode="o" horiz-adv-x="1497" d="M45 385q23 161 149 271q125 109 289 109h636q73 0 140 -30.5t115 -86.5q83 -96 83 -215q0 -26 -4 -53q-23 -163 -148 -272q-123 -108 -290 -108h-636q-74 0 -140.5 30.5t-114.5 85.5q-48 56 -68 126q-14 47 -14 95q0 24 3 48zM534 330q-2 -16 -2 -31q0 -66 46 -118 q57 -65 141 -65h37q70 0 123 46t63 115l22 157q2 16 2 32q0 66 -45 118q-56 64 -142 64h-37q-70 0 -122.5 -45.5t-62.5 -114.5z" />
<glyph unicode="&#xf6;" horiz-adv-x="1497" d="M45 385q23 161 149 271q125 109 289 109h636q73 0 140 -30.5t115 -86.5q83 -96 83 -215q0 -26 -4 -53q-23 -163 -148 -272q-123 -108 -290 -108h-636q-74 0 -140.5 30.5t-114.5 85.5q-48 56 -68 126q-14 47 -14 95q0 24 3 48zM534 330q-2 -16 -2 -31q0 -66 46 -118 q57 -65 141 -65h37q70 0 123 46t63 115l22 157q2 16 2 32q0 66 -45 118q-56 64 -142 64h-37q-70 0 -122.5 -45.5t-62.5 -114.5z" />
<glyph unicode="&#xf5;" horiz-adv-x="1497" d="M45 385q23 161 149 271q125 109 289 109h636q73 0 140 -30.5t115 -86.5q83 -96 83 -215q0 -26 -4 -53q-23 -163 -148 -272q-123 -108 -290 -108h-636q-74 0 -140.5 30.5t-114.5 85.5q-48 56 -68 126q-14 47 -14 95q0 24 3 48zM534 330q-2 -16 -2 -31q0 -66 46 -118 q57 -65 141 -65h37q70 0 123 46t63 115l22 157q2 16 2 32q0 66 -45 118q-56 64 -142 64h-37q-70 0 -122.5 -45.5t-62.5 -114.5z" />
<glyph unicode="&#xf4;" horiz-adv-x="1497" d="M45 385q23 161 149 271q125 109 289 109h636q73 0 140 -30.5t115 -86.5q83 -96 83 -215q0 -26 -4 -53q-23 -163 -148 -272q-123 -108 -290 -108h-636q-74 0 -140.5 30.5t-114.5 85.5q-48 56 -68 126q-14 47 -14 95q0 24 3 48zM534 330q-2 -16 -2 -31q0 -66 46 -118 q57 -65 141 -65h37q70 0 123 46t63 115l22 157q2 16 2 32q0 66 -45 118q-56 64 -142 64h-37q-70 0 -122.5 -45.5t-62.5 -114.5z" />
<glyph unicode="&#xf3;" horiz-adv-x="1497" d="M45 385q23 161 149 271q125 109 289 109h636q73 0 140 -30.5t115 -86.5q83 -96 83 -215q0 -26 -4 -53q-23 -163 -148 -272q-123 -108 -290 -108h-636q-74 0 -140.5 30.5t-114.5 85.5q-48 56 -68 126q-14 47 -14 95q0 24 3 48zM534 330q-2 -16 -2 -31q0 -66 46 -118 q57 -65 141 -65h37q70 0 123 46t63 115l22 157q2 16 2 32q0 66 -45 118q-56 64 -142 64h-37q-70 0 -122.5 -45.5t-62.5 -114.5z" />
<glyph unicode="&#xf2;" horiz-adv-x="1497" d="M45 385q23 161 149 271q125 109 289 109h636q73 0 140 -30.5t115 -86.5q83 -96 83 -215q0 -26 -4 -53q-23 -163 -148 -272q-123 -108 -290 -108h-636q-74 0 -140.5 30.5t-114.5 85.5q-48 56 -68 126q-14 47 -14 95q0 24 3 48zM534 330q-2 -16 -2 -31q0 -66 46 -118 q57 -65 141 -65h37q70 0 123 46t63 115l22 157q2 16 2 32q0 66 -45 118q-56 64 -142 64h-37q-70 0 -122.5 -45.5t-62.5 -114.5z" />
<glyph unicode="p" horiz-adv-x="1548" d="M-4 -213l122 847q8 56 51.5 94t100.5 38h900q74 0 140.5 -30.5t114.5 -85.5q48 -56 69 -126q13 -47 13 -95q0 -24 -3 -48q-23 -161 -149 -271q-125 -109 -290 -109h-528l-37 -257q-8 -56 -52 -94.5t-101 -38.5h-198q-70 0 -117 53q-38 43 -38 98q0 12 2 25zM585 332 q-2 -16 -2 -32q0 -66 45 -118q56 -64 142 -64h37q70 0 122.5 45.5t62.5 114.5l23 158q2 16 2 31q0 66 -46 118q-57 65 -142 65h-36q-70 0 -123 -46t-63 -115z" />
<glyph unicode="q" horiz-adv-x="1546" d="M45 386q23 162 149 272q123 108 289 108h860q70 0 117 -53q38 -43 38 -98q0 -12 -2 -25l-121 -846q-8 -56 -52 -94.5t-101 -38.5h-199q-69 0 -116 53q-38 44 -38 101q0 11 1 22l31 214h-522q-73 0 -140 30.5t-115 86.5q-83 96 -83 215q0 26 4 53zM534 332q-2 -16 -2 -31 q0 -66 46 -119q56 -64 141 -64h37q70 0 123 45.5t63 114.5l22 158q2 16 2 32q0 66 -45 117q-57 65 -142 65h-37q-70 0 -122.5 -46t-62.5 -115z" />
<glyph unicode="r" horiz-adv-x="1497" d="M28 176l18 130q28 197 179 328q128 111 298 128l-18 -130q120 117 281 133h322q80 0 152 -33t124 -93q88 -103 88 -238v-17h-508l6 40q2 16 2 31q0 70 -48 126q-58 67 -148 67q-73 0 -128 -48t-66 -120l-50 -348q-8 -56 -52 -94t-101 -38h-198q-70 0 -117 53 q-38 43 -38 98q0 12 2 25z" />
<glyph unicode="s" horiz-adv-x="1421" d="M22 189q4 10 12 22t28.5 24.5t47.5 12.5h324q11 -36 38 -67q57 -65 141 -65h37q70 0 123 46t63 115l12 87h-126l-11 -71q-4 -26 -24.5 -43.5t-46.5 -17.5h-27q-32 0 -54 25t-17 57l10 68h-478v1q1 1 1 2q23 162 148 271t290 109h636q130 0 227 -89q30 -28 30 -64 q0 -17 -7 -36q-4 -11 -11.5 -22.5t-28 -24.5t-47.5 -13h-325q-13 39 -37 68q-56 64 -142 64h-37q-70 0 -122.5 -45.5t-62.5 -114.5l-13 -88h117l10 71q4 26 24.5 44t46.5 18h37q32 0 54 -25t17 -57l-10 -69h478v-2q-23 -163 -148 -272q-123 -108 -290 -108h-636 q-132 0 -228 88q-31 28 -31 64q0 17 8 37z" />
<glyph unicode="t" horiz-adv-x="1001" d="M53 715q4 25 24 40.5t46 15.5h163l36 251q8 57 52 95t101 38h17q31 -100 92.5 -178t130 -119.5t125 -62t99.5 -24.5q35 -3 54 -27q18 -24 13 -54q-5 -25 -24.5 -41t-44.5 -16h-161l-25 -177q-3 -21 -2 -42q0 -115 80 -206q39 -44 88 -69q-8 -60 -54 -99.5t-106 -39.5 h-103q-90 0 -172.5 37.5t-141.5 105.5q-58 68 -84 155q-17 58 -17 116q0 30 4 60l22 153l-147 7q-32 1 -50 24q-20 26 -15 57z" />
<glyph unicode="u" horiz-adv-x="1556" d="M60 411l31 221q8 56 52 94.5t101 38.5h185q68 0 116 -54q38 -43 38 -98q0 -12 -2 -25l-25 -175q-3 -21 -3 -41q0 -92 64 -166q77 -90 196 -90h116l74 516q8 56 52 94.5t101 38.5h198q69 0 117 -54q38 -43 38 -98q0 -12 -2 -25l-84 -588h-1007q-79 0 -150 32.5t-122 91.5 q-51 58 -73 134q-15 50 -15 102q0 25 4 51z" />
<glyph unicode="&#xfb;" horiz-adv-x="1556" d="M60 411l31 221q8 56 52 94.5t101 38.5h185q68 0 116 -54q38 -43 38 -98q0 -12 -2 -25l-25 -175q-3 -21 -3 -41q0 -92 64 -166q77 -90 196 -90h116l74 516q8 56 52 94.5t101 38.5h198q69 0 117 -54q38 -43 38 -98q0 -12 -2 -25l-84 -588h-1007q-79 0 -150 32.5t-122 91.5 q-51 58 -73 134q-15 50 -15 102q0 25 4 51z" />
<glyph unicode="&#xfa;" horiz-adv-x="1556" d="M60 411l31 221q8 56 52 94.5t101 38.5h185q68 0 116 -54q38 -43 38 -98q0 -12 -2 -25l-25 -175q-3 -21 -3 -41q0 -92 64 -166q77 -90 196 -90h116l74 516q8 56 52 94.5t101 38.5h198q69 0 117 -54q38 -43 38 -98q0 -12 -2 -25l-84 -588h-1007q-79 0 -150 32.5t-122 91.5 q-51 58 -73 134q-15 50 -15 102q0 25 4 51z" />
<glyph unicode="&#xf9;" horiz-adv-x="1556" d="M60 411l31 221q8 56 52 94.5t101 38.5h185q68 0 116 -54q38 -43 38 -98q0 -12 -2 -25l-25 -175q-3 -21 -3 -41q0 -92 64 -166q77 -90 196 -90h116l74 516q8 56 52 94.5t101 38.5h198q69 0 117 -54q38 -43 38 -98q0 -12 -2 -25l-84 -588h-1007q-79 0 -150 32.5t-122 91.5 q-51 58 -73 134q-15 50 -15 102q0 25 4 51z" />
<glyph unicode="v" horiz-adv-x="1439" d="M61 586q-2 14 -2 27q0 52 34 94q46 58 125 58h187q55 0 98 -35t53 -89q0 -1 0.5 -1t0.5 -1q14 -71 46.5 -135t74 -111t82.5 -80.5t82 -55.5l54 375q8 56 52 94.5t101 38.5h189q69 0 117 -54q38 -43 38 -98q0 -12 -2 -25l-84 -588h-553q-255 0 -451 163q-95 79 -157 185.5 t-83 226.5q-1 2 -1 5.5t-1 5.5z" />
<glyph unicode="w" horiz-adv-x="2465" d="M60 411l31 221q8 57 52 95t101 38h185q68 0 116 -54q38 -43 38 -98q0 -12 -2 -25l-25 -175q-3 -21 -3 -41q0 -90 62 -164q75 -89 193 -92l118 -2l75 518q8 57 51.5 95t100.5 38h185q69 0 117 -54q38 -43 38 -98q0 -12 -2 -25l-25 -175q-3 -21 -3 -41q0 -92 63 -166 q77 -90 196 -90h116l74 516q8 56 52 94.5t101 38.5h199q68 0 116 -54q38 -44 38 -101q0 -11 -1 -22l-85 -588h-1916q-79 0 -150 32.5t-122 91.5q-51 58 -73 134q-15 50 -15 102q0 25 4 51z" />
<glyph unicode="x" horiz-adv-x="1505" d="M-2 0q47 116 195.5 200.5t345.5 106.5h-168q-131 0 -218 100q-71 82 -71 184q0 22 3 46l9 61q4 28 26 47.5t51 19.5h352q32 0 54.5 -22.5t23.5 -53.5q1 -48 15.5 -88t34.5 -64.5t47 -43t50.5 -27.5t47 -14t34 -6t15.5 -1h111l37 258q4 26 24 44t47 18h445 q-44 -122 -196 -210t-357 -110h178q132 1 218 -99q71 -82 70 -184q0 -22 -3 -46l-7 -50q-4 -28 -26 -47t-51 -19h-362q-31 0 -53 21.5t-24 52.5q-3 58 -26 103t-53.5 68.5t-67 38.5t-59.5 19t-39 4h-112l-35 -245q-4 -26 -24 -44t-47 -18h-435z" />
<glyph unicode="y" horiz-adv-x="1546" d="M59 383l37 277q16 47 56 76t90 29h256q39 0 67 -31q23 -24 23 -57q0 -7 -1 -13l-30 -254q-2 -18 -2 -35q0 -96 66 -170q79 -89 196 -89h116l74 516q8 56 52 94.5t101 38.5h184q69 0 117 -54q38 -43 38 -98q0 -12 -2 -25l-89 -623q-25 -147 -138 -245q-117 -101 -271 -101 h-289q-30 0 -50 23q-20 22 -15 52l4 28q113 3 203 84t106 194h-271h-294q-73 0 -139.5 30.5t-114.5 85.5t-69 125q-14 47 -14 96q0 23 3 46z" />
<glyph unicode="&#xfd;" horiz-adv-x="1546" d="M59 383l37 277q16 47 56 76t90 29h256q39 0 67 -31q23 -24 23 -57q0 -7 -1 -13l-30 -254q-2 -18 -2 -35q0 -96 66 -170q79 -89 196 -89h116l74 516q8 56 52 94.5t101 38.5h184q69 0 117 -54q38 -43 38 -98q0 -12 -2 -25l-89 -623q-25 -147 -138 -245q-117 -101 -271 -101 h-289q-30 0 -50 23q-20 22 -15 52l4 28q113 3 203 84t106 194h-271h-294q-73 0 -139.5 30.5t-114.5 85.5t-69 125q-14 47 -14 96q0 23 3 46z" />
<glyph unicode="z" horiz-adv-x="1499" d="M-8 0q23 162 147 269.5t288 107.5h251l13 92q3 20 18 33t35 13h217q-21 68 -80 105q-46 28 -104 28h-33q-62 0 -112 -37t-67 -96h-478q38 80 109 141q125 109 290 109h1025q-23 -162 -147 -269.5t-288 -107.5h-251l-13 -92q-3 -20 -18 -33t-35 -13h-217q21 -68 80 -105 q47 -29 103 -29h34q62 0 112 37.5t67 96.5h478q-39 -81 -109 -142q-123 -108 -290 -108h-1025z" />
<glyph unicode="&#xad;" />
<glyph unicode="&#x2000;" horiz-adv-x="766" />
<glyph unicode="&#x2001;" horiz-adv-x="1533" />
<glyph unicode="&#x2002;" horiz-adv-x="766" />
<glyph unicode="&#x2003;" horiz-adv-x="1533" />
<glyph unicode="&#x2004;" horiz-adv-x="511" />
<glyph unicode="&#x2005;" horiz-adv-x="383" />
<glyph unicode="&#x2006;" horiz-adv-x="255" />
<glyph unicode="&#x2007;" horiz-adv-x="255" />
<glyph unicode="&#x2008;" horiz-adv-x="191" />
<glyph unicode="&#x2009;" horiz-adv-x="306" />
<glyph unicode="&#x200a;" horiz-adv-x="85" />
<glyph unicode="&#x2010;" horiz-adv-x="1216" d="M58 559q9 60 55 100t107 40h783q68 0 112.5 -51t34.5 -119q-9 -60 -55 -100t-107 -40h-783q-68 0 -112.5 51t-34.5 119z" />
<glyph unicode="&#x2011;" horiz-adv-x="1216" d="M58 559q9 60 55 100t107 40h783q68 0 112.5 -51t34.5 -119q-9 -60 -55 -100t-107 -40h-783q-68 0 -112.5 51t-34.5 119z" />
<glyph unicode="&#x2012;" horiz-adv-x="1216" d="M58 559q9 60 55 100t107 40h783q68 0 112.5 -51t34.5 -119q-9 -60 -55 -100t-107 -40h-783q-68 0 -112.5 51t-34.5 119z" />
<glyph unicode="&#x2013;" horiz-adv-x="1143" d="M58 559q8 60 51 100t100 40h732q63 0 105 -51t32 -119q-8 -60 -51 -100t-100 -40h-732q-63 0 -105 51t-32 119z" />
<glyph unicode="&#x2014;" horiz-adv-x="2167" d="M59 559q17 60 103 100t200 40h1464q127 0 210 -51t65 -119q-17 -60 -103 -100t-200 -40h-1464q-127 0 -210 51t-65 119z" />
<glyph unicode="&#x2018;" horiz-adv-x="612" d="M100 1010q7 45 34.5 79t68.5 50q104 56 190 141l-19 -130h85q68 0 112.5 -51t34.5 -119q-9 -60 -54.5 -100t-106.5 -40h-198q-68 0 -112.5 51t-34.5 119z" />
<glyph unicode="&#x2019;" horiz-adv-x="610" d="M101 1017q9 60 55 100t107 40h197q68 0 112.5 -51t34.5 -119q-7 -45 -34.5 -79t-68.5 -50q-102 -55 -189 -141l18 130h-85q-68 0 -112.5 51t-34.5 119z" />
<glyph unicode="&#x201c;" horiz-adv-x="845" d="M100 1010q7 45 34.5 79t68.5 50q104 56 190 141l-19 -130h81q94 55 171 130l-19 -130h85q68 0 112.5 -51t34.5 -119q-9 -60 -55 -100t-107 -40h-197q-11 0 -17 1q-6 -1 -18 -1h-198q-68 0 -112.5 51t-34.5 119z" />
<glyph unicode="&#x201d;" horiz-adv-x="843" d="M101 1017q9 60 55 100t107 40h197q12 0 18 -1q6 1 18 1h197q68 0 112.5 -51t34.5 -119q-7 -45 -34.5 -79t-68.5 -50q-102 -55 -189 -141l18 130h-81q-92 -53 -170 -130l18 130h-85q-68 0 -112.5 51t-34.5 119z" />
<glyph unicode="&#x202f;" horiz-adv-x="306" />
<glyph unicode="&#x205f;" horiz-adv-x="383" />
<glyph unicode="&#x25fc;" horiz-adv-x="768" d="M0 0v768h768v-768h-768z" />
</font>
</defs>
</svg>
